<svg width="1000" height="1000">
<polygon points="50.6942,327.82968 80.69074,339.90237 40.005146,320.88474" fill="#918339" />
<line x1="40.005146" y1="320.88474" x2="50.6942" y2="327.82968" stroke="#e74c3c" stroke-width="1" />
<line x1="80.69074" y1="339.90237" x2="50.6942" y2="327.82968" stroke="#e74c3c" stroke-width="1" />
<polygon points="40.005146,320.88474 65.60951,331.26556 41.34992,307.1924" fill="#fce463" />
<line x1="41.34992" y1="307.1924" x2="40.005146" y2="320.88474" stroke="#e74c3c" stroke-width="1" />
<polygon points="82.53387,302.59418 53.295048,296.09406 41.34992,307.1924" fill="#fee664" />
<line x1="82.53387" y1="302.59418" x2="53.295048" y2="296.09406" stroke="#e74c3c" stroke-width="1" />
<line x1="41.34992" y1="307.1924" x2="53.295048" y2="296.09406" stroke="#e74c3c" stroke-width="1" />
<polygon points="80.69074,339.90237 65.60951,331.26556 40.005146,320.88474" fill="#897c36" />
<line x1="80.69074" y1="339.90237" x2="40.005146" y2="320.88474" stroke="#e74c3c" stroke-width="1" />
<line x1="40.005146" y1="320.88474" x2="65.60951" y2="331.26556" stroke="#e74c3c" stroke-width="1" />
<polygon points="65.60951,331.26556 66.82512,315.26028 41.34992,307.1924" fill="#fee664" />
<line x1="65.60951" y1="331.26556" x2="41.34992" y2="307.1924" stroke="#e74c3c" stroke-width="1" />
<polygon points="66.82512,315.26028 82.53387,302.59418 41.34992,307.1924" fill="#fee664" />
<line x1="66.82512" y1="315.26028" x2="41.34992" y2="307.1924" stroke="#e74c3c" stroke-width="1" />
<line x1="82.53387" y1="302.59418" x2="41.34992" y2="307.1924" stroke="#e74c3c" stroke-width="1" />
<polygon points="80.69074,339.90237 109.5067,348.44977 65.60951,331.26556" fill="#8a7d36" />
<line x1="65.60951" y1="331.26556" x2="80.69074" y2="339.90237" stroke="#e74c3c" stroke-width="1" />
<line x1="109.5067" y1="348.44977" x2="80.69074" y2="339.90237" stroke="#e74c3c" stroke-width="1" />
<polygon points="65.60951,331.26556 93.568085,340.56943 66.82512,315.26028" fill="#fee664" />
<line x1="66.82512" y1="315.26028" x2="65.60951" y2="331.26556" stroke="#e74c3c" stroke-width="1" />
<polygon points="110.918076,308.55203 82.53387,302.59418 66.82512,315.26028" fill="#fee664" />
<line x1="82.53387" y1="302.59418" x2="110.918076" y2="308.55203" stroke="#e74c3c" stroke-width="1" />
<line x1="82.53387" y1="302.59418" x2="66.82512" y2="315.26028" stroke="#e74c3c" stroke-width="1" />
<polygon points="109.5067,348.44977 93.568085,340.56943 65.60951,331.26556" fill="#837733" />
<line x1="109.5067" y1="348.44977" x2="65.60951" y2="331.26556" stroke="#e74c3c" stroke-width="1" />
<line x1="65.60951" y1="331.26556" x2="93.568085" y2="340.56943" stroke="#e74c3c" stroke-width="1" />
<polygon points="93.568085,340.56943 94.63796,321.9521 66.82512,315.26028" fill="#fbe463" />
<line x1="93.568085" y1="340.56943" x2="66.82512" y2="315.26028" stroke="#e74c3c" stroke-width="1" />
<polygon points="94.63796,321.9521 110.918076,308.55203 66.82512,315.26028" fill="#fee664" />
<line x1="94.63796" y1="321.9521" x2="66.82512" y2="315.26028" stroke="#e74c3c" stroke-width="1" />
<line x1="110.918076" y1="308.55203" x2="66.82512" y2="315.26028" stroke="#e74c3c" stroke-width="1" />
<polygon points="109.5067,348.44977 139.71007,354.76712 93.568085,340.56943" fill="#847834" />
<line x1="93.568085" y1="340.56943" x2="109.5067" y2="348.44977" stroke="#e74c3c" stroke-width="1" />
<line x1="139.71007" y1="354.76712" x2="109.5067" y2="348.44977" stroke="#e74c3c" stroke-width="1" />
<polygon points="140.1783,313.49725 110.918076,308.55203 94.63796,321.9521" fill="#fee664" />
<line x1="110.918076" y1="308.55203" x2="140.1783" y2="313.49725" stroke="#e74c3c" stroke-width="1" />
<line x1="110.918076" y1="308.55203" x2="94.63796" y2="321.9521" stroke="#e74c3c" stroke-width="1" />
<polygon points="93.568085,340.56943 122.64821,346.80807 94.63796,321.9521" fill="#fbe463" />
<line x1="94.63796" y1="321.9521" x2="93.568085" y2="340.56943" stroke="#e74c3c" stroke-width="1" />
<polygon points="139.71007,354.76712 122.64821,346.80807 93.568085,340.56943" fill="#807432" />
<line x1="93.568085" y1="340.56943" x2="139.71007" y2="354.76712" stroke="#e74c3c" stroke-width="1" />
<line x1="93.568085" y1="340.56943" x2="122.64821" y2="346.80807" stroke="#e74c3c" stroke-width="1" />
<polygon points="120.907906,327.64474 140.1783,313.49725 94.63796,321.9521" fill="#fee664" />
<line x1="140.1783" y1="313.49725" x2="94.63796" y2="321.9521" stroke="#e74c3c" stroke-width="1" />
<polygon points="122.64821,346.80807 120.907906,327.64474 94.63796,321.9521" fill="#f6de60" />
<line x1="122.64821" y1="346.80807" x2="94.63796" y2="321.9521" stroke="#e74c3c" stroke-width="1" />
<line x1="120.907906" y1="327.64474" x2="94.63796" y2="321.9521" stroke="#e74c3c" stroke-width="1" />
<polygon points="139.71007,354.76712 168.66934,356.6239 122.64821,346.80807" fill="#817432" />
<line x1="122.64821" y1="346.80807" x2="139.71007" y2="354.76712" stroke="#e74c3c" stroke-width="1" />
<line x1="168.66934" y1="356.6239" x2="139.71007" y2="354.76712" stroke="#e74c3c" stroke-width="1" />
<polygon points="167.77513,314.9728 140.1783,313.49725 120.907906,327.64474" fill="#fee664" />
<line x1="140.1783" y1="313.49725" x2="167.77513" y2="314.9728" stroke="#e74c3c" stroke-width="1" />
<line x1="140.1783" y1="313.49725" x2="120.907906" y2="327.64474" stroke="#e74c3c" stroke-width="1" />
<polygon points="122.64821,346.80807 147.64494,349.00806 120.907906,327.64474" fill="#f5de60" />
<line x1="120.907906" y1="327.64474" x2="122.64821" y2="346.80807" stroke="#e74c3c" stroke-width="1" />
<polygon points="168.66934,356.6239 147.64494,349.00806 122.64821,346.80807" fill="#766a2e" />
<line x1="122.64821" y1="346.80807" x2="168.66934" y2="356.6239" stroke="#e74c3c" stroke-width="1" />
<line x1="122.64821" y1="346.80807" x2="147.64494" y2="349.00806" stroke="#e74c3c" stroke-width="1" />
<polygon points="145.2947,329.0409 167.77513,314.9728 120.907906,327.64474" fill="#fee664" />
<line x1="167.77513" y1="314.9728" x2="120.907906" y2="327.64474" stroke="#e74c3c" stroke-width="1" />
<polygon points="147.64494,349.00806 145.2947,329.0409 120.907906,327.64474" fill="#f7df61" />
<line x1="147.64494" y1="349.00806" x2="120.907906" y2="327.64474" stroke="#e74c3c" stroke-width="1" />
<line x1="145.2947" y1="329.0409" x2="120.907906" y2="327.64474" stroke="#e74c3c" stroke-width="1" />
<polygon points="196.79416,310.70215 167.77513,314.9728 145.2947,329.0409" fill="#fee664" />
<line x1="167.77513" y1="314.9728" x2="196.79416" y2="310.70215" stroke="#e74c3c" stroke-width="1" />
<line x1="167.77513" y1="314.9728" x2="145.2947" y2="329.0409" stroke="#e74c3c" stroke-width="1" />
<polygon points="168.66934,356.6239 201.20555,356.4192 147.64494,349.00806" fill="#766b2e" />
<line x1="147.64494" y1="349.00806" x2="168.66934" y2="356.6239" stroke="#e74c3c" stroke-width="1" />
<line x1="201.20555" y1="356.4192" x2="168.66934" y2="356.6239" stroke="#e74c3c" stroke-width="1" />
<polygon points="147.64494,349.00806 175.77571,347.874 145.2947,329.0409" fill="#f7e061" />
<line x1="145.2947" y1="329.0409" x2="147.64494" y2="349.00806" stroke="#e74c3c" stroke-width="1" />
<polygon points="173.62833,326.0852 196.79416,310.70215 145.2947,329.0409" fill="#fee664" />
<line x1="196.79416" y1="310.70215" x2="145.2947" y2="329.0409" stroke="#e74c3c" stroke-width="1" />
<polygon points="201.20555,356.4192 175.77571,347.874 147.64494,349.00806" fill="#74692d" />
<line x1="147.64494" y1="349.00806" x2="201.20555" y2="356.4192" stroke="#e74c3c" stroke-width="1" />
<line x1="147.64494" y1="349.00806" x2="175.77571" y2="347.874" stroke="#e74c3c" stroke-width="1" />
<polygon points="175.77571,347.874 173.62833,326.0852 145.2947,329.0409" fill="#fae262" />
<line x1="175.77571" y1="347.874" x2="145.2947" y2="329.0409" stroke="#e74c3c" stroke-width="1" />
<line x1="173.62833" y1="326.0852" x2="145.2947" y2="329.0409" stroke="#e74c3c" stroke-width="1" />
<polygon points="340.1161,734.04834 340.0014,755.4486 347.32544,743.76624" fill="#f2db5f" />
<line x1="340.0014" y1="755.4486" x2="340.1161" y2="734.04834" stroke="#e74c3c" stroke-width="1" />
<polygon points="343.94656,715.8412 340.1161,734.04834 355.319,721.1578" fill="#fee664" />
<line x1="340.1161" y1="734.04834" x2="343.94656" y2="715.8412" stroke="#e74c3c" stroke-width="1" />
<polygon points="340.0014,755.4486 350.03342,762.5556 347.32544,743.76624" fill="#ead45c" />
<line x1="340.0014" y1="755.4486" x2="347.32544" y2="743.76624" stroke="#e74c3c" stroke-width="1" />
<line x1="350.03342" y1="762.5556" x2="340.0014" y2="755.4486" stroke="#e74c3c" stroke-width="1" />
<polygon points="324.51816,623.8105 343.94656,715.8412 355.319,721.1578" fill="#f9e162" />
<line x1="343.94656" y1="715.8412" x2="324.51816" y2="623.8105" stroke="#e74c3c" stroke-width="1" />
<line x1="343.94656" y1="715.8412" x2="355.319" y2="721.1578" stroke="#e74c3c" stroke-width="1" />
<polygon points="403.55914,767.6044 413.88382,755.7635 416.9556,735.36523" fill="#6b602a" />
<line x1="413.88382" y1="755.7635" x2="403.55914" y2="767.6044" stroke="#e74c3c" stroke-width="1" />
<line x1="413.88382" y1="755.7635" x2="416.9556" y2="735.36523" stroke="#e74c3c" stroke-width="1" />
<polygon points="225.64503,303.6397 196.79416,310.70215 173.62833,326.0852" fill="#fee664" />
<line x1="196.79416" y1="310.70215" x2="225.64503" y2="303.6397" stroke="#e74c3c" stroke-width="1" />
<line x1="196.79416" y1="310.70215" x2="173.62833" y2="326.0852" stroke="#e74c3c" stroke-width="1" />
<polygon points="340.1161,734.04834 347.32544,743.76624 355.319,721.1578" fill="#fee664" />
<line x1="340.1161" y1="734.04834" x2="355.319" y2="721.1578" stroke="#e74c3c" stroke-width="1" />
<line x1="340.1161" y1="734.04834" x2="347.32544" y2="743.76624" stroke="#e74c3c" stroke-width="1" />
<polygon points="320.03622,577.07526 324.51816,623.8105 329.12036,632.42175" fill="#ead45c" />
<line x1="324.51816" y1="623.8105" x2="320.03622" y2="577.07526" stroke="#e74c3c" stroke-width="1" />
<polygon points="329.12036,632.42175 324.51816,623.8105 355.319,721.1578" fill="#dec957" />
<line x1="324.51816" y1="623.8105" x2="329.12036" y2="632.42175" stroke="#e74c3c" stroke-width="1" />
<line x1="324.51816" y1="623.8105" x2="355.319" y2="721.1578" stroke="#e74c3c" stroke-width="1" />
<polygon points="387.8818,713.36005 396.46542,711.9254 371.62085,623.1193" fill="#847734" />
<line x1="396.46542" y1="711.9254" x2="371.62085" y2="623.1193" stroke="#e74c3c" stroke-width="1" />
<polygon points="201.20555,356.4192 231.56482,356.6932 175.77571,347.874" fill="#74692d" />
<line x1="175.77571" y1="347.874" x2="201.20555" y2="356.4192" stroke="#e74c3c" stroke-width="1" />
<line x1="231.56482" y1="356.6932" x2="201.20555" y2="356.4192" stroke="#e74c3c" stroke-width="1" />
<polygon points="406.28464,743.8511 416.9556,735.36523 396.46542,711.9254" fill="#a79842" />
<line x1="416.9556" y1="735.36523" x2="396.46542" y2="711.9254" stroke="#e74c3c" stroke-width="1" />
<polygon points="366.37366,630.9957 371.62085,623.1193 371.6129,587.84674" fill="#6a6029" />
<line x1="371.62085" y1="623.1193" x2="371.6129" y2="587.84674" stroke="#e74c3c" stroke-width="1" />
<polygon points="328.97183,591.3948 320.03622,577.07526 329.12036,632.42175" fill="#f8e161" />
<line x1="320.03622" y1="577.07526" x2="329.12036" y2="632.42175" stroke="#e74c3c" stroke-width="1" />
<polygon points="366.37366,630.9957 387.8818,713.36005 371.62085,623.1193" fill="#897c36" />
<line x1="366.37366" y1="630.9957" x2="371.62085" y2="623.1193" stroke="#e74c3c" stroke-width="1" />
<line x1="387.8818" y1="713.36005" x2="371.62085" y2="623.1193" stroke="#e74c3c" stroke-width="1" />
<polygon points="355.319,721.1578 347.32544,743.76624 366.912,722.99994" fill="#fee664" />
<line x1="347.32544" y1="743.76624" x2="355.319" y2="721.1578" stroke="#e74c3c" stroke-width="1" />
<polygon points="387.8818,713.36005 406.28464,743.8511 396.46542,711.9254" fill="#9b8c3d" />
<line x1="387.8818" y1="713.36005" x2="396.46542" y2="711.9254" stroke="#e74c3c" stroke-width="1" />
<line x1="396.46542" y1="711.9254" x2="406.28464" y2="743.8511" stroke="#e74c3c" stroke-width="1" />
<polygon points="329.12036,632.42175 355.319,721.1578 348.5991,633.5201" fill="#fee664" />
<line x1="329.12036" y1="632.42175" x2="355.319" y2="721.1578" stroke="#e74c3c" stroke-width="1" />
<polygon points="175.77571,347.874 205.73407,347.74966 173.62833,326.0852" fill="#fbe463" />
<line x1="173.62833" y1="326.0852" x2="175.77571" y2="347.874" stroke="#e74c3c" stroke-width="1" />
<polygon points="406.28464,743.8511 403.55914,767.6044 416.9556,735.36523" fill="#695f29" />
<line x1="416.9556" y1="735.36523" x2="406.28464" y2="743.8511" stroke="#e74c3c" stroke-width="1" />
<line x1="403.55914" y1="767.6044" x2="416.9556" y2="735.36523" stroke="#e74c3c" stroke-width="1" />
<polygon points="347.32544,743.76624 350.03342,762.5556 366.6004,751.9686" fill="#efd85e" />
<line x1="347.32544" y1="743.76624" x2="350.03342" y2="762.5556" stroke="#e74c3c" stroke-width="1" />
<polygon points="328.97183,591.3948 329.12036,632.42175 348.5991,633.5201" fill="#fbe363" />
<line x1="328.97183" y1="591.3948" x2="329.12036" y2="632.42175" stroke="#e74c3c" stroke-width="1" />
<line x1="329.12036" y1="632.42175" x2="348.5991" y2="633.5201" stroke="#e74c3c" stroke-width="1" />
<polygon points="355.319,721.1578 366.912,722.99994 348.5991,633.5201" fill="#fee664" />
<line x1="355.319" y1="721.1578" x2="348.5991" y2="633.5201" stroke="#e74c3c" stroke-width="1" />
<line x1="355.319" y1="721.1578" x2="366.912" y2="722.99994" stroke="#e74c3c" stroke-width="1" />
<polygon points="350.03342,762.5556 366.01028,770.52594 366.6004,751.9686" fill="#f6df60" />
<line x1="350.03342" y1="762.5556" x2="366.6004" y2="751.9686" stroke="#e74c3c" stroke-width="1" />
<line x1="366.01028" y1="770.52594" x2="350.03342" y2="762.5556" stroke="#e74c3c" stroke-width="1" />
<polygon points="366.37366,630.9957 348.5991,633.5201 387.8818,713.36005" fill="#ecd65d" />
<line x1="366.37366" y1="630.9957" x2="387.8818" y2="713.36005" stroke="#e74c3c" stroke-width="1" />
<polygon points="348.5991,633.5201 366.912,722.99994 387.8818,713.36005" fill="#eed85e" />
<line x1="348.5991" y1="633.5201" x2="387.8818" y2="713.36005" stroke="#e74c3c" stroke-width="1" />
<line x1="348.5991" y1="633.5201" x2="366.912" y2="722.99994" stroke="#e74c3c" stroke-width="1" />
<polygon points="369.1389,597.5573 366.37366,630.9957 371.6129,587.84674" fill="#544c21" />
<line x1="366.37366" y1="630.9957" x2="371.6129" y2="587.84674" stroke="#e74c3c" stroke-width="1" />
<polygon points="347.32544,743.76624 366.6004,751.9686 366.912,722.99994" fill="#fee664" />
<line x1="366.912" y1="722.99994" x2="347.32544" y2="743.76624" stroke="#e74c3c" stroke-width="1" />
<line x1="347.32544" y1="743.76624" x2="366.6004" y2="751.9686" stroke="#e74c3c" stroke-width="1" />
<polygon points="315.3539,516.9177 320.03622,577.07526 328.97183,591.3948" fill="#ebd45c" />
<line x1="320.03622" y1="577.07526" x2="315.3539" y2="516.9177" stroke="#e74c3c" stroke-width="1" />
<line x1="320.03622" y1="577.07526" x2="328.97183" y2="591.3948" stroke="#e74c3c" stroke-width="1" />
<polygon points="202.7516,321.56766 225.64503,303.6397 173.62833,326.0852" fill="#fee664" />
<line x1="225.64503" y1="303.6397" x2="173.62833" y2="326.0852" stroke="#e74c3c" stroke-width="1" />
<polygon points="366.912,722.99994 366.6004,751.9686 387.8818,713.36005" fill="#fee664" />
<line x1="366.912" y1="722.99994" x2="387.8818" y2="713.36005" stroke="#e74c3c" stroke-width="1" />
<line x1="366.912" y1="722.99994" x2="366.6004" y2="751.9686" stroke="#e74c3c" stroke-width="1" />
<polygon points="366.01028,770.52594 403.55914,767.6044 406.28464,743.8511" fill="#d7c354" />
<line x1="403.55914" y1="767.6044" x2="366.01028" y2="770.52594" stroke="#e74c3c" stroke-width="1" />
<line x1="406.28464" y1="743.8511" x2="403.55914" y2="767.6044" stroke="#e74c3c" stroke-width="1" />
<polygon points="369.1389,597.5573 371.6129,587.84674 379.03372,531.64325" fill="#514a20" />
<line x1="369.1389" y1="597.5573" x2="379.03372" y2="531.64325" stroke="#e74c3c" stroke-width="1" />
<line x1="369.1389" y1="597.5573" x2="371.6129" y2="587.84674" stroke="#e74c3c" stroke-width="1" />
<line x1="371.6129" y1="587.84674" x2="379.03372" y2="531.64325" stroke="#e74c3c" stroke-width="1" />
<polygon points="231.56482,356.6932 205.73407,347.74966 175.77571,347.874" fill="#75692e" />
<line x1="175.77571" y1="347.874" x2="231.56482" y2="356.6932" stroke="#e74c3c" stroke-width="1" />
<line x1="205.73407" y1="347.74966" x2="175.77571" y2="347.874" stroke="#e74c3c" stroke-width="1" />
<polygon points="347.8549,596.89105 348.5991,633.5201 366.37366,630.9957" fill="#cdb950" />
<line x1="348.5991" y1="633.5201" x2="366.37366" y2="630.9957" stroke="#e74c3c" stroke-width="1" />
<polygon points="347.8549,596.89105 328.97183,591.3948 348.5991,633.5201" fill="#f7e061" />
<line x1="347.8549" y1="596.89105" x2="348.5991" y2="633.5201" stroke="#e74c3c" stroke-width="1" />
<line x1="328.97183" y1="591.3948" x2="348.5991" y2="633.5201" stroke="#e74c3c" stroke-width="1" />
<polygon points="366.6004,751.9686 406.28464,743.8511 387.8818,713.36005" fill="#fee664" />
<line x1="366.6004" y1="751.9686" x2="387.8818" y2="713.36005" stroke="#e74c3c" stroke-width="1" />
<line x1="406.28464" y1="743.8511" x2="387.8818" y2="713.36005" stroke="#e74c3c" stroke-width="1" />
<polygon points="366.6004,751.9686 366.01028,770.52594 406.28464,743.8511" fill="#cab74f" />
<line x1="366.6004" y1="751.9686" x2="406.28464" y2="743.8511" stroke="#e74c3c" stroke-width="1" />
<line x1="366.6004" y1="751.9686" x2="366.01028" y2="770.52594" stroke="#e74c3c" stroke-width="1" />
<line x1="366.01028" y1="770.52594" x2="406.28464" y2="743.8511" stroke="#e74c3c" stroke-width="1" />
<polygon points="205.73407,347.74966 202.7516,321.56766 173.62833,326.0852" fill="#fde563" />
<line x1="205.73407" y1="347.74966" x2="173.62833" y2="326.0852" stroke="#e74c3c" stroke-width="1" />
<line x1="202.7516" y1="321.56766" x2="173.62833" y2="326.0852" stroke="#e74c3c" stroke-width="1" />
<polygon points="369.1389,597.5573 347.8549,596.89105 366.37366,630.9957" fill="#cfbc51" />
<line x1="369.1389" y1="597.5573" x2="366.37366" y2="630.9957" stroke="#e74c3c" stroke-width="1" />
<line x1="347.8549" y1="596.89105" x2="366.37366" y2="630.9957" stroke="#e74c3c" stroke-width="1" />
<polygon points="317.7985,527.9119 328.97183,591.3948 347.8549,596.89105" fill="#e5cf5a" />
<line x1="328.97183" y1="591.3948" x2="347.8549" y2="596.89105" stroke="#e74c3c" stroke-width="1" />
<polygon points="317.7985,527.9119 315.3539,516.9177 328.97183,591.3948" fill="#d7c254" />
<line x1="317.7985" y1="527.9119" x2="328.97183" y2="591.3948" stroke="#e74c3c" stroke-width="1" />
<line x1="317.7985" y1="527.9119" x2="315.3539" y2="516.9177" stroke="#e74c3c" stroke-width="1" />
<line x1="315.3539" y1="516.9177" x2="328.97183" y2="591.3948" stroke="#e74c3c" stroke-width="1" />
<polygon points="253.83925,302.5287 225.64503,303.6397 202.7516,321.56766" fill="#fee664" />
<line x1="225.64503" y1="303.6397" x2="253.83925" y2="302.5287" stroke="#e74c3c" stroke-width="1" />
<line x1="202.7516" y1="321.56766" x2="225.64503" y2="303.6397" stroke="#e74c3c" stroke-width="1" />
<polygon points="231.56482,356.6932 258.81796,354.47318 205.73407,347.74966" fill="#756a2e" />
<line x1="205.73407" y1="347.74966" x2="231.56482" y2="356.6932" stroke="#e74c3c" stroke-width="1" />
<line x1="258.81796" y1="354.47318" x2="231.56482" y2="356.6932" stroke="#e74c3c" stroke-width="1" />
<polygon points="362.59305,550.4977 347.8549,596.89105 369.1389,597.5573" fill="#a0913f" />
<line x1="347.8549" y1="596.89105" x2="369.1389" y2="597.5573" stroke="#e74c3c" stroke-width="1" />
<polygon points="205.73407,347.74966 231.28632,346.34555 202.7516,321.56766" fill="#fce463" />
<line x1="205.73407" y1="347.74966" x2="202.7516" y2="321.56766" stroke="#e74c3c" stroke-width="1" />
<polygon points="362.59305,550.4977 317.7985,527.9119 347.8549,596.89105" fill="#e1cc58" />
<line x1="362.59305" y1="550.4977" x2="347.8549" y2="596.89105" stroke="#e74c3c" stroke-width="1" />
<line x1="317.7985" y1="527.9119" x2="347.8549" y2="596.89105" stroke="#e74c3c" stroke-width="1" />
<polygon points="231.0276,323.58133 253.83925,302.5287 202.7516,321.56766" fill="#fee664" />
<line x1="253.83925" y1="302.5287" x2="202.7516" y2="321.56766" stroke="#e74c3c" stroke-width="1" />
<polygon points="258.81796,354.47318 231.28632,346.34555 205.73407,347.74966" fill="#6f652c" />
<line x1="258.81796" y1="354.47318" x2="205.73407" y2="347.74966" stroke="#e74c3c" stroke-width="1" />
<line x1="231.28632" y1="346.34555" x2="258.81796" y2="354.47318" stroke="#e74c3c" stroke-width="1" />
<line x1="231.28632" y1="346.34555" x2="205.73407" y2="347.74966" stroke="#e74c3c" stroke-width="1" />
<polygon points="288.95972,471.1216 252.78452,416.85886 317.7985,527.9119" fill="#c1af4c" />
<line x1="288.95972" y1="471.1216" x2="252.78452" y2="416.85886" stroke="#e74c3c" stroke-width="1" />
<line x1="252.78452" y1="416.85886" x2="317.7985" y2="527.9119" stroke="#e74c3c" stroke-width="1" />
<polygon points="231.28632,346.34555 231.0276,323.58133 202.7516,321.56766" fill="#fee664" />
<line x1="231.28632" y1="346.34555" x2="202.7516" y2="321.56766" stroke="#e74c3c" stroke-width="1" />
<line x1="231.0276" y1="323.58133" x2="202.7516" y2="321.56766" stroke="#e74c3c" stroke-width="1" />
<polygon points="411.72095,551.6754 362.59305,550.4977 369.1389,597.5573" fill="#a99942" />
<line x1="411.72095" y1="551.6754" x2="369.1389" y2="597.5573" stroke="#e74c3c" stroke-width="1" />
<line x1="362.59305" y1="550.4977" x2="369.1389" y2="597.5573" stroke="#e74c3c" stroke-width="1" />
<polygon points="191.62807,802.4466 193.34987,812.219 190.39896,777.81696" fill="#e9d35b" />
<line x1="191.62807" y1="802.4466" x2="190.39896" y2="777.81696" stroke="#e74c3c" stroke-width="1" />
<line x1="193.34987" y1="812.219" x2="191.62807" y2="802.4466" stroke="#e74c3c" stroke-width="1" />
<line x1="193.34987" y1="812.219" x2="190.39896" y2="777.81696" stroke="#e74c3c" stroke-width="1" />
<polygon points="288.95972,471.1216 317.7985,527.9119 362.59305,550.4977" fill="#c3b14d" />
<line x1="288.95972" y1="471.1216" x2="362.59305" y2="550.4977" stroke="#e74c3c" stroke-width="1" />
<line x1="317.7985" y1="527.9119" x2="288.95972" y2="471.1216" stroke="#e74c3c" stroke-width="1" />
<line x1="362.59305" y1="550.4977" x2="317.7985" y2="527.9119" stroke="#e74c3c" stroke-width="1" />
<polygon points="288.4123,308.262 253.83925,302.5287 231.0276,323.58133" fill="#fee664" />
<line x1="253.83925" y1="302.5287" x2="288.4123" y2="308.262" stroke="#e74c3c" stroke-width="1" />
<line x1="253.83925" y1="302.5287" x2="231.0276" y2="323.58133" stroke="#e74c3c" stroke-width="1" />
<polygon points="203.74957,767.4405 194.28441,756.73364 190.39896,777.81696" fill="#fee664" />
<line x1="190.39896" y1="777.81696" x2="194.28441" y2="756.73364" stroke="#e74c3c" stroke-width="1" />
<polygon points="194.28441,756.73364 203.74957,767.4405 179.85394,654.7137" fill="#f3dc60" />
<line x1="179.85394" y1="654.7137" x2="194.28441" y2="756.73364" stroke="#e74c3c" stroke-width="1" />
<line x1="194.28441" y1="756.73364" x2="203.74957" y2="767.4405" stroke="#e74c3c" stroke-width="1" />
<polygon points="190.86606,790.5364 203.74957,767.4405 190.39896,777.81696" fill="#fee664" />
<line x1="190.39896" y1="777.81696" x2="190.86606" y2="790.5364" stroke="#e74c3c" stroke-width="1" />
<line x1="203.74957" y1="767.4405" x2="190.39896" y2="777.81696" stroke="#e74c3c" stroke-width="1" />
<polygon points="271.8614,782.35486 246.53897,758.3513 232.39764,758.20435" fill="#a2933f" />
<line x1="271.8614" y1="782.35486" x2="246.53897" y2="758.3513" stroke="#e74c3c" stroke-width="1" />
<polygon points="267.71814,802.29224 271.8614,782.35486 251.2123,793.41254" fill="#695f29" />
<line x1="267.71814" y1="802.29224" x2="271.8614" y2="782.35486" stroke="#e74c3c" stroke-width="1" />
<polygon points="179.85394,654.7137 189.75636,663.2861 179.48886,607.9353" fill="#fee664" />
<line x1="179.48886" y1="607.9353" x2="179.85394" y2="654.7137" stroke="#e74c3c" stroke-width="1" />
<polygon points="246.53897,758.3513 225.13965,661.7148 232.39764,758.20435" fill="#8c7f37" />
<line x1="232.39764" y1="758.20435" x2="246.53897" y2="758.3513" stroke="#e74c3c" stroke-width="1" />
<line x1="246.53897" y1="758.3513" x2="225.13965" y2="661.7148" stroke="#e74c3c" stroke-width="1" />
<polygon points="263.5842,323.82394 231.0276,323.58133 231.28632,346.34555" fill="#fee664" />
<line x1="263.5842" y1="323.82394" x2="231.28632" y2="346.34555" stroke="#e74c3c" stroke-width="1" />
<line x1="231.0276" y1="323.58133" x2="231.28632" y2="346.34555" stroke="#e74c3c" stroke-width="1" />
<polygon points="203.74957,767.4405 189.75636,663.2861 179.85394,654.7137" fill="#fde563" />
<line x1="179.85394" y1="654.7137" x2="203.74957" y2="767.4405" stroke="#e74c3c" stroke-width="1" />
<line x1="179.85394" y1="654.7137" x2="189.75636" y2="663.2861" stroke="#e74c3c" stroke-width="1" />
<polygon points="208.59433,800.48065 190.86606,790.5364 193.34987,812.219" fill="#efd85e" />
<line x1="190.86606" y1="790.5364" x2="193.34987" y2="812.219" stroke="#e74c3c" stroke-width="1" />
<polygon points="225.13965,661.7148 229.2734,621.256 213.28128,665.71533" fill="#776c2f" />
<line x1="225.13965" y1="661.7148" x2="229.2734" y2="621.256" stroke="#e74c3c" stroke-width="1" />
<polygon points="250.05907,818.69867 267.71814,802.29224 251.2123,793.41254" fill="#695f29" />
<line x1="267.71814" y1="802.29224" x2="250.05907" y2="818.69867" stroke="#e74c3c" stroke-width="1" />
<line x1="267.71814" y1="802.29224" x2="251.2123" y2="793.41254" stroke="#e74c3c" stroke-width="1" />
<polygon points="225.13965,661.7148 213.28128,665.71533 232.39764,758.20435" fill="#95873a" />
<line x1="225.13965" y1="661.7148" x2="232.39764" y2="758.20435" stroke="#e74c3c" stroke-width="1" />
<line x1="213.28128" y1="665.71533" x2="225.13965" y2="661.7148" stroke="#e74c3c" stroke-width="1" />
<polygon points="210.54799,822.99207 208.59433,800.48065 193.34987,812.219" fill="#f7e061" />
<line x1="210.54799" y1="822.99207" x2="193.34987" y2="812.219" stroke="#e74c3c" stroke-width="1" />
<line x1="208.59433" y1="800.48065" x2="193.34987" y2="812.219" stroke="#e74c3c" stroke-width="1" />
<polygon points="231.28632,346.34555 224.44165,358.5891 241.80957,336.42102" fill="#fee664" />
<line x1="241.80957" y1="336.42102" x2="231.28632" y2="346.34555" stroke="#e74c3c" stroke-width="1" />
<line x1="231.28632" y1="346.34555" x2="224.44165" y2="358.5891" stroke="#e74c3c" stroke-width="1" />
<line x1="241.80957" y1="336.42102" x2="224.44165" y2="358.5891" stroke="#e74c3c" stroke-width="1" />
<polygon points="189.75636,663.2861 189.62973,623.0955 179.48886,607.9353" fill="#fbe362" />
<line x1="179.48886" y1="607.9353" x2="189.75636" y2="663.2861" stroke="#e74c3c" stroke-width="1" />
<polygon points="251.2123,793.41254 271.8614,782.35486 232.39764,758.20435" fill="#a89842" />
<line x1="251.2123" y1="793.41254" x2="271.8614" y2="782.35486" stroke="#e74c3c" stroke-width="1" />
<line x1="271.8614" y1="782.35486" x2="232.39764" y2="758.20435" stroke="#e74c3c" stroke-width="1" />
<polygon points="203.74957,767.4405 232.39764,758.20435 189.75636,663.2861" fill="#f9e162" />
<line x1="189.75636" y1="663.2861" x2="203.74957" y2="767.4405" stroke="#e74c3c" stroke-width="1" />
<polygon points="208.59433,800.48065 203.74957,767.4405 190.86606,790.5364" fill="#fee664" />
<line x1="190.86606" y1="790.5364" x2="208.59433" y2="800.48065" stroke="#e74c3c" stroke-width="1" />
<line x1="190.86606" y1="790.5364" x2="203.74957" y2="767.4405" stroke="#e74c3c" stroke-width="1" />
<polygon points="263.5842,323.82394 288.4123,308.262 231.0276,323.58133" fill="#fee664" />
<line x1="263.5842" y1="323.82394" x2="231.0276" y2="323.58133" stroke="#e74c3c" stroke-width="1" />
<line x1="288.4123" y1="308.262" x2="231.0276" y2="323.58133" stroke="#e74c3c" stroke-width="1" />
<polygon points="232.39764,758.20435 213.28128,665.71533 189.75636,663.2861" fill="#f8e061" />
<line x1="232.39764" y1="758.20435" x2="189.75636" y2="663.2861" stroke="#e74c3c" stroke-width="1" />
<line x1="232.39764" y1="758.20435" x2="213.28128" y2="665.71533" stroke="#e74c3c" stroke-width="1" />
<polygon points="327.08908,519.355 362.59305,550.4977 411.72095,551.6754" fill="#998a3c" />
<line x1="362.59305" y1="550.4977" x2="327.08908" y2="519.355" stroke="#e74c3c" stroke-width="1" />
<line x1="411.72095" y1="551.6754" x2="362.59305" y2="550.4977" stroke="#e74c3c" stroke-width="1" />
<polygon points="179.48886,607.9353 189.62973,623.0955 182.98524,550.3013" fill="#fde563" />
<line x1="182.98524" y1="550.3013" x2="179.48886" y2="607.9353" stroke="#e74c3c" stroke-width="1" />
<line x1="179.48886" y1="607.9353" x2="189.62973" y2="623.0955" stroke="#e74c3c" stroke-width="1" />
<polygon points="189.75636,663.2861 213.28128,665.71533 189.62973,623.0955" fill="#e7d15b" />
<line x1="189.62973" y1="623.0955" x2="189.75636" y2="663.2861" stroke="#e74c3c" stroke-width="1" />
<line x1="189.75636" y1="663.2861" x2="213.28128" y2="665.71533" stroke="#e74c3c" stroke-width="1" />
<polygon points="229.2734,621.256 217.07497,628.64923 213.28128,665.71533" fill="#6d622b" />
<line x1="229.2734" y1="621.256" x2="213.28128" y2="665.71533" stroke="#e74c3c" stroke-width="1" />
<polygon points="251.2123,793.41254 232.39764,758.20435 203.74957,767.4405" fill="#fee664" />
<line x1="232.39764" y1="758.20435" x2="251.2123" y2="793.41254" stroke="#e74c3c" stroke-width="1" />
<line x1="203.74957" y1="767.4405" x2="232.39764" y2="758.20435" stroke="#e74c3c" stroke-width="1" />
<polygon points="210.54799,822.99207 250.05907,818.69867 208.59433,800.48065" fill="#d5c154" />
<line x1="208.59433" y1="800.48065" x2="210.54799" y2="822.99207" stroke="#e74c3c" stroke-width="1" />
<line x1="250.05907" y1="818.69867" x2="210.54799" y2="822.99207" stroke="#e74c3c" stroke-width="1" />
<polygon points="430.7103,509.12308 414.25488,516.87885 411.72095,551.6754" fill="#645b27" />
<line x1="430.7103" y1="509.12308" x2="411.72095" y2="551.6754" stroke="#e74c3c" stroke-width="1" />
<polygon points="213.28128,665.71533 217.07497,628.64923 189.62973,623.0955" fill="#ead45c" />
<line x1="213.28128" y1="665.71533" x2="189.62973" y2="623.0955" stroke="#e74c3c" stroke-width="1" />
<line x1="213.28128" y1="665.71533" x2="217.07497" y2="628.64923" stroke="#e74c3c" stroke-width="1" />
<polygon points="208.59433,800.48065 251.2123,793.41254 203.74957,767.4405" fill="#fee664" />
<line x1="208.59433" y1="800.48065" x2="203.74957" y2="767.4405" stroke="#e74c3c" stroke-width="1" />
<line x1="251.2123" y1="793.41254" x2="203.74957" y2="767.4405" stroke="#e74c3c" stroke-width="1" />
<polygon points="250.05907,818.69867 251.2123,793.41254 208.59433,800.48065" fill="#d2be52" />
<line x1="250.05907" y1="818.69867" x2="208.59433" y2="800.48065" stroke="#e74c3c" stroke-width="1" />
<line x1="250.05907" y1="818.69867" x2="251.2123" y2="793.41254" stroke="#e74c3c" stroke-width="1" />
<line x1="251.2123" y1="793.41254" x2="208.59433" y2="800.48065" stroke="#e74c3c" stroke-width="1" />
<polygon points="182.98524,550.3013 189.10408,561.57117 170.97804,455.9345" fill="#edd65d" />
<line x1="170.97804" y1="455.9345" x2="182.98524" y2="550.3013" stroke="#e74c3c" stroke-width="1" />
<polygon points="189.62973,623.0955 189.10408,561.57117 182.98524,550.3013" fill="#f1da5f" />
<line x1="182.98524" y1="550.3013" x2="189.62973" y2="623.0955" stroke="#e74c3c" stroke-width="1" />
<line x1="182.98524" y1="550.3013" x2="189.10408" y2="561.57117" stroke="#e74c3c" stroke-width="1" />
<polygon points="414.25488,516.87885 430.7103,509.12308 438.33063,448.06488" fill="#786d2f" />
<line x1="414.25488" y1="516.87885" x2="438.33063" y2="448.06488" stroke="#e74c3c" stroke-width="1" />
<line x1="430.7103" y1="509.12308" x2="414.25488" y2="516.87885" stroke="#e74c3c" stroke-width="1" />
<line x1="438.33063" y1="448.06488" x2="430.7103" y2="509.12308" stroke="#e74c3c" stroke-width="1" />
<polygon points="414.25488,516.87885 327.08908,519.355 411.72095,551.6754" fill="#a0913f" />
<line x1="411.72095" y1="551.6754" x2="414.25488" y2="516.87885" stroke="#e74c3c" stroke-width="1" />
<line x1="327.08908" y1="519.355" x2="414.25488" y2="516.87885" stroke="#e74c3c" stroke-width="1" />
<line x1="327.08908" y1="519.355" x2="411.72095" y2="551.6754" stroke="#e74c3c" stroke-width="1" />
<polygon points="229.2734,621.256 273.22833,565.64966 217.07497,628.64923" fill="#4e461e" />
<line x1="217.07497" y1="628.64923" x2="229.2734" y2="621.256" stroke="#e74c3c" stroke-width="1" />
<line x1="229.2734" y1="621.256" x2="273.22833" y2="565.64966" stroke="#e74c3c" stroke-width="1" />
<polygon points="189.62973,623.0955 217.07497,628.64923 189.10408,561.57117" fill="#e6d05a" />
<line x1="189.10408" y1="561.57117" x2="189.62973" y2="623.0955" stroke="#e74c3c" stroke-width="1" />
<line x1="189.62973" y1="623.0955" x2="217.07497" y2="628.64923" stroke="#e74c3c" stroke-width="1" />
<polygon points="331.50656,298.744 288.4123,308.262 263.5842,323.82394" fill="#fee664" />
<line x1="288.4123" y1="308.262" x2="331.50656" y2="298.744" stroke="#e74c3c" stroke-width="1" />
<line x1="288.4123" y1="308.262" x2="263.5842" y2="323.82394" stroke="#e74c3c" stroke-width="1" />
<polygon points="189.10408,561.57117 185.70172,496.05774 170.97804,455.9345" fill="#ebd55c" />
<line x1="170.97804" y1="455.9345" x2="189.10408" y2="561.57117" stroke="#e74c3c" stroke-width="1" />
<polygon points="175.76515,401.6984 170.97804,455.9345 194.95029,427.74664" fill="#f8e161" />
<line x1="175.76515" y1="401.6984" x2="170.97804" y2="455.9345" stroke="#e74c3c" stroke-width="1" />
<polygon points="217.07497,628.64923 261.258,578.62994 189.10408,561.57117" fill="#e9d35b" />
<line x1="217.07497" y1="628.64923" x2="189.10408" y2="561.57117" stroke="#e74c3c" stroke-width="1" />
<polygon points="273.22833,565.64966 261.258,578.62994 217.07497,628.64923" fill="#3d3718" />
<line x1="273.22833" y1="565.64966" x2="217.07497" y2="628.64923" stroke="#e74c3c" stroke-width="1" />
<line x1="273.22833" y1="565.64966" x2="261.258" y2="578.62994" stroke="#e74c3c" stroke-width="1" />
<line x1="217.07497" y1="628.64923" x2="261.258" y2="578.62994" stroke="#e74c3c" stroke-width="1" />
<polygon points="241.80957,336.42102 271.79025,334.96536 263.5842,323.82394" fill="#fee664" />
<line x1="263.5842" y1="323.82394" x2="241.80957" y2="336.42102" stroke="#e74c3c" stroke-width="1" />
<polygon points="175.76515,401.6984 194.95029,427.74664 210.65733,356.31775" fill="#fee664" />
<line x1="210.65733" y1="356.31775" x2="175.76515" y2="401.6984" stroke="#e74c3c" stroke-width="1" />
<line x1="175.76515" y1="401.6984" x2="194.95029" y2="427.74664" stroke="#e74c3c" stroke-width="1" />
<polygon points="304.99902,316.32562 331.50656,298.744 263.5842,323.82394" fill="#fee664" />
<line x1="331.50656" y1="298.744" x2="263.5842" y2="323.82394" stroke="#e74c3c" stroke-width="1" />
<polygon points="170.97804,455.9345 185.70172,496.05774 194.95029,427.74664" fill="#f9e162" />
<line x1="170.97804" y1="455.9345" x2="194.95029" y2="427.74664" stroke="#e74c3c" stroke-width="1" />
<line x1="170.97804" y1="455.9345" x2="185.70172" y2="496.05774" stroke="#e74c3c" stroke-width="1" />
<polygon points="241.80957,336.42102 210.65733,356.31775 271.79025,334.96536" fill="#fee664" />
<line x1="271.79025" y1="334.96536" x2="241.80957" y2="336.42102" stroke="#e74c3c" stroke-width="1" />
<line x1="241.80957" y1="336.42102" x2="210.65733" y2="356.31775" stroke="#e74c3c" stroke-width="1" />
<polygon points="189.10408,561.57117 261.258,578.62994 185.70172,496.05774" fill="#ebd55c" />
<line x1="185.70172" y1="496.05774" x2="189.10408" y2="561.57117" stroke="#e74c3c" stroke-width="1" />
<line x1="189.10408" y1="561.57117" x2="261.258" y2="578.62994" stroke="#e74c3c" stroke-width="1" />
<polygon points="271.79025,334.96536 304.99902,316.32562 263.5842,323.82394" fill="#fee664" />
<line x1="271.79025" y1="334.96536" x2="263.5842" y2="323.82394" stroke="#e74c3c" stroke-width="1" />
<line x1="304.99902" y1="316.32562" x2="263.5842" y2="323.82394" stroke="#e74c3c" stroke-width="1" />
<polygon points="327.08908,519.355 302.8065,533.6169 261.258,578.62994" fill="#453f1b" />
<line x1="327.08908" y1="519.355" x2="261.258" y2="578.62994" stroke="#e74c3c" stroke-width="1" />
<line x1="302.8065" y1="533.6169" x2="327.08908" y2="519.355" stroke="#e74c3c" stroke-width="1" />
<polygon points="194.95029,427.74664 227.22447,364.81552 210.65733,356.31775" fill="#fee664" />
<line x1="210.65733" y1="356.31775" x2="194.95029" y2="427.74664" stroke="#e74c3c" stroke-width="1" />
<polygon points="210.65733,356.31775 227.22447,364.81552 271.79025,334.96536" fill="#fee664" />
<line x1="210.65733" y1="356.31775" x2="271.79025" y2="334.96536" stroke="#e74c3c" stroke-width="1" />
<line x1="210.65733" y1="356.31775" x2="227.22447" y2="364.81552" stroke="#e74c3c" stroke-width="1" />
<polygon points="386.5724,292.62964 331.50656,298.744 304.99902,316.32562" fill="#fee664" />
<line x1="331.50656" y1="298.744" x2="386.5724" y2="292.62964" stroke="#e74c3c" stroke-width="1" />
<line x1="304.99902" y1="316.32562" x2="331.50656" y2="298.744" stroke="#e74c3c" stroke-width="1" />
<polygon points="261.258,578.62994 263.14273,533.44885 185.70172,496.05774" fill="#e8d25b" />
<line x1="261.258" y1="578.62994" x2="185.70172" y2="496.05774" stroke="#e74c3c" stroke-width="1" />
<polygon points="194.95029,427.74664 185.70172,496.05774 263.89377,465.81573" fill="#f5de60" />
<line x1="185.70172" y1="496.05774" x2="194.95029" y2="427.74664" stroke="#e74c3c" stroke-width="1" />
<polygon points="302.8065,533.6169 263.14273,533.44885 261.258,578.62994" fill="#af9f45" />
<line x1="302.8065" y1="533.6169" x2="261.258" y2="578.62994" stroke="#e74c3c" stroke-width="1" />
<line x1="261.258" y1="578.62994" x2="263.14273" y2="533.44885" stroke="#e74c3c" stroke-width="1" />
<polygon points="185.70172,496.05774 263.14273,533.44885 263.89377,465.81573" fill="#f9e162" />
<line x1="185.70172" y1="496.05774" x2="263.89377" y2="465.81573" stroke="#e74c3c" stroke-width="1" />
<line x1="185.70172" y1="496.05774" x2="263.14273" y2="533.44885" stroke="#e74c3c" stroke-width="1" />
<polygon points="194.95029,427.74664 263.89377,465.81573 227.22447,364.81552" fill="#fee664" />
<line x1="194.95029" y1="427.74664" x2="227.22447" y2="364.81552" stroke="#e74c3c" stroke-width="1" />
<line x1="194.95029" y1="427.74664" x2="263.89377" y2="465.81573" stroke="#e74c3c" stroke-width="1" />
<polygon points="271.79025,334.96536 312.45868,334.01233 304.99902,316.32562" fill="#fee664" />
<line x1="271.79025" y1="334.96536" x2="304.99902" y2="316.32562" stroke="#e74c3c" stroke-width="1" />
<polygon points="351.7667,309.8346 386.5724,292.62964 304.99902,316.32562" fill="#fce463" />
<line x1="304.99902" y1="316.32562" x2="386.5724" y2="292.62964" stroke="#e74c3c" stroke-width="1" />
<polygon points="263.14273,533.44885 302.8065,533.6169 263.89377,465.81573" fill="#c5b34d" />
<line x1="263.14273" y1="533.44885" x2="263.89377" y2="465.81573" stroke="#e74c3c" stroke-width="1" />
<line x1="302.8065" y1="533.6169" x2="263.14273" y2="533.44885" stroke="#e74c3c" stroke-width="1" />
<polygon points="591.0657,810.71625 588.9896,830.356 592.1408,823.6352" fill="#d5c153" />
<line x1="588.9896" y1="830.356" x2="591.0657" y2="810.71625" stroke="#e74c3c" stroke-width="1" />
<polygon points="662.6476,890.0543 668.9611,869.8155 671.8881,838.1344" fill="#72672d" />
<line x1="662.6476" y1="890.0543" x2="671.8881" y2="838.1344" stroke="#e74c3c" stroke-width="1" />
<line x1="668.9611" y1="869.8155" x2="662.6476" y2="890.0543" stroke="#e74c3c" stroke-width="1" />
<line x1="668.9611" y1="869.8155" x2="671.8881" y2="838.1344" stroke="#e74c3c" stroke-width="1" />
<polygon points="227.22447,364.81552 266.336,379.11792 271.79025,334.96536" fill="#fee664" />
<line x1="227.22447" y1="364.81552" x2="271.79025" y2="334.96536" stroke="#e74c3c" stroke-width="1" />
<polygon points="588.9896,830.356 587.53186,844.51587 592.1408,823.6352" fill="#d5c154" />
<line x1="588.9896" y1="830.356" x2="592.1408" y2="823.6352" stroke="#e74c3c" stroke-width="1" />
<line x1="588.9896" y1="830.356" x2="587.53186" y2="844.51587" stroke="#e74c3c" stroke-width="1" />
<polygon points="671.8881,838.1344 635.5328,813.7985 638.6748,822.2899" fill="#aa9a43" />
<line x1="635.5328" y1="813.7985" x2="671.8881" y2="838.1344" stroke="#e74c3c" stroke-width="1" />
<line x1="638.6748" y1="822.2899" x2="635.5328" y2="813.7985" stroke="#e74c3c" stroke-width="1" />
<polygon points="312.45868,334.01233 351.7667,309.8346 304.99902,316.32562" fill="#fee664" />
<line x1="312.45868" y1="334.01233" x2="304.99902" y2="316.32562" stroke="#e74c3c" stroke-width="1" />
<line x1="351.7667" y1="309.8346" x2="304.99902" y2="316.32562" stroke="#e74c3c" stroke-width="1" />
<polygon points="263.89377,465.81573 266.336,379.11792 227.22447,364.81552" fill="#efd95e" />
<line x1="263.89377" y1="465.81573" x2="227.22447" y2="364.81552" stroke="#e74c3c" stroke-width="1" />
<line x1="227.22447" y1="364.81552" x2="266.336" y2="379.11792" stroke="#e74c3c" stroke-width="1" />
<polygon points="587.53186,844.51587 585.97687,876.1482 614.91486,894.4855" fill="#fbe363" />
<line x1="585.97687" y1="876.1482" x2="587.53186" y2="844.51587" stroke="#e74c3c" stroke-width="1" />
<line x1="614.91486" y1="894.4855" x2="585.97687" y2="876.1482" stroke="#e74c3c" stroke-width="1" />
<polygon points="671.28076,860.6421 671.8881,838.1344 638.6748,822.2899" fill="#b3a246" />
<line x1="671.8881" y1="838.1344" x2="671.28076" y2="860.6421" stroke="#e74c3c" stroke-width="1" />
<line x1="671.8881" y1="838.1344" x2="638.6748" y2="822.2899" stroke="#e74c3c" stroke-width="1" />
<polygon points="591.0657,810.71625 592.1408,823.6352 595.7203,738.41656" fill="#d2be52" />
<line x1="591.0657" y1="810.71625" x2="592.1408" y2="823.6352" stroke="#e74c3c" stroke-width="1" />
<polygon points="266.336,379.11792 312.45868,334.01233 271.79025,334.96536" fill="#fee664" />
<line x1="266.336" y1="379.11792" x2="271.79025" y2="334.96536" stroke="#e74c3c" stroke-width="1" />
<line x1="312.45868" y1="334.01233" x2="271.79025" y2="334.96536" stroke="#e74c3c" stroke-width="1" />
<polygon points="592.1408,823.6352 587.53186,844.51587 619.0148,865.6963" fill="#fee664" />
<line x1="587.53186" y1="844.51587" x2="592.1408" y2="823.6352" stroke="#e74c3c" stroke-width="1" />
<polygon points="584.571,727.499 591.0657,810.71625 595.7203,738.41656" fill="#e0cb58" />
<line x1="591.0657" y1="810.71625" x2="584.571" y2="727.499" stroke="#e74c3c" stroke-width="1" />
<line x1="591.0657" y1="810.71625" x2="595.7203" y2="738.41656" stroke="#e74c3c" stroke-width="1" />
<polygon points="614.91486,894.4855 662.6476,890.0543 671.28076,860.6421" fill="#d0bc52" />
<line x1="662.6476" y1="890.0543" x2="614.91486" y2="894.4855" stroke="#e74c3c" stroke-width="1" />
<line x1="671.28076" y1="860.6421" x2="662.6476" y2="890.0543" stroke="#e74c3c" stroke-width="1" />
<polygon points="334.6908,491.24625 263.89377,465.81573 302.8065,533.6169" fill="#cdb950" />
<line x1="263.89377" y1="465.81573" x2="302.8065" y2="533.6169" stroke="#e74c3c" stroke-width="1" />
<polygon points="619.0148,865.6963 587.53186,844.51587 614.91486,894.4855" fill="#f4dd60" />
<line x1="587.53186" y1="844.51587" x2="619.0148" y2="865.6963" stroke="#e74c3c" stroke-width="1" />
<line x1="587.53186" y1="844.51587" x2="614.91486" y2="894.4855" stroke="#e74c3c" stroke-width="1" />
<polygon points="616.9233,829.50665 592.1408,823.6352 619.0148,865.6963" fill="#fee664" />
<line x1="592.1408" y1="823.6352" x2="619.0148" y2="865.6963" stroke="#e74c3c" stroke-width="1" />
<polygon points="616.9233,829.50665 619.0148,865.6963 638.6748,822.2899" fill="#fde563" />
<line x1="616.9233" y1="829.50665" x2="619.0148" y2="865.6963" stroke="#e74c3c" stroke-width="1" />
<polygon points="468.5848,305.37057 386.5724,292.62964 351.7667,309.8346" fill="#fee664" />
<line x1="386.5724" y1="292.62964" x2="468.5848" y2="305.37057" stroke="#e74c3c" stroke-width="1" />
<line x1="386.5724" y1="292.62964" x2="351.7667" y2="309.8346" stroke="#e74c3c" stroke-width="1" />
<polygon points="619.0148,865.6963 671.28076,860.6421 638.6748,822.2899" fill="#fee664" />
<line x1="619.0148" y1="865.6963" x2="638.6748" y2="822.2899" stroke="#e74c3c" stroke-width="1" />
<line x1="671.28076" y1="860.6421" x2="638.6748" y2="822.2899" stroke="#e74c3c" stroke-width="1" />
<polygon points="616.9233,829.50665 638.6748,822.2899 636.41205,743.73175" fill="#d5c154" />
<line x1="616.9233" y1="829.50665" x2="638.6748" y2="822.2899" stroke="#e74c3c" stroke-width="1" />
<line x1="638.6748" y1="822.2899" x2="636.41205" y2="743.73175" stroke="#e74c3c" stroke-width="1" />
<polygon points="619.0148,865.6963 614.91486,894.4855 671.28076,860.6421" fill="#d2be52" />
<line x1="619.0148" y1="865.6963" x2="671.28076" y2="860.6421" stroke="#e74c3c" stroke-width="1" />
<line x1="619.0148" y1="865.6963" x2="614.91486" y2="894.4855" stroke="#e74c3c" stroke-width="1" />
<line x1="614.91486" y1="894.4855" x2="671.28076" y2="860.6421" stroke="#e74c3c" stroke-width="1" />
<polygon points="592.1408,823.6352 616.9233,829.50665 621.7628,747.7018" fill="#fde563" />
<line x1="592.1408" y1="823.6352" x2="616.9233" y2="829.50665" stroke="#e74c3c" stroke-width="1" />
<polygon points="371.0529,540.0134 334.6908,491.24625 302.8065,533.6169" fill="#bcaa4a" />
<line x1="302.8065" y1="533.6169" x2="371.0529" y2="540.0134" stroke="#e74c3c" stroke-width="1" />
<line x1="302.8065" y1="533.6169" x2="334.6908" y2="491.24625" stroke="#e74c3c" stroke-width="1" />
<polygon points="595.7203,738.41656 592.1408,823.6352 621.7628,747.7018" fill="#f9e162" />
<line x1="595.7203" y1="738.41656" x2="592.1408" y2="823.6352" stroke="#e74c3c" stroke-width="1" />
<line x1="592.1408" y1="823.6352" x2="621.7628" y2="747.7018" stroke="#e74c3c" stroke-width="1" />
<polygon points="621.7628,747.7018 616.9233,829.50665 636.41205,743.73175" fill="#a69641" />
<line x1="621.7628" y1="747.7018" x2="616.9233" y2="829.50665" stroke="#e74c3c" stroke-width="1" />
<line x1="616.9233" y1="829.50665" x2="636.41205" y2="743.73175" stroke="#e74c3c" stroke-width="1" />
<polygon points="574.85034,671.9553 584.571,727.499 593.76166,684.7155" fill="#dfca58" />
<line x1="584.571" y1="727.499" x2="574.85034" y2="671.9553" stroke="#e74c3c" stroke-width="1" />
<polygon points="584.571,727.499 595.7203,738.41656 593.76166,684.7155" fill="#dfca57" />
<line x1="584.571" y1="727.499" x2="593.76166" y2="684.7155" stroke="#e74c3c" stroke-width="1" />
<line x1="584.571" y1="727.499" x2="595.7203" y2="738.41656" stroke="#e74c3c" stroke-width="1" />
<polygon points="424.86218,323.51123 351.7667,309.8346 312.45868,334.01233" fill="#fee664" />
<line x1="351.7667" y1="309.8346" x2="312.45868" y2="334.01233" stroke="#e74c3c" stroke-width="1" />
<polygon points="621.7628,747.7018 636.41205,743.73175 644.4822,682.0964" fill="#a1923f" />
<line x1="621.7628" y1="747.7018" x2="636.41205" y2="743.73175" stroke="#e74c3c" stroke-width="1" />
<line x1="644.4822" y1="682.0964" x2="636.41205" y2="743.73175" stroke="#e74c3c" stroke-width="1" />
<polygon points="336.04446,403.43274 266.336,379.11792 263.89377,465.81573" fill="#efd85e" />
<line x1="266.336" y1="379.11792" x2="263.89377" y2="465.81573" stroke="#e74c3c" stroke-width="1" />
<polygon points="595.7203,738.41656 621.7628,747.7018 635.7974,688.4027" fill="#f4dd60" />
<line x1="621.7628" y1="747.7018" x2="595.7203" y2="738.41656" stroke="#e74c3c" stroke-width="1" />
<polygon points="424.86218,323.51123 468.5848,305.37057 351.7667,309.8346" fill="#fce463" />
<line x1="424.86218" y1="323.51123" x2="351.7667" y2="309.8346" stroke="#e74c3c" stroke-width="1" />
<line x1="468.5848" y1="305.37057" x2="351.7667" y2="309.8346" stroke="#e74c3c" stroke-width="1" />
<polygon points="376.48035,348.62155 312.45868,334.01233 266.336,379.11792" fill="#fee664" />
<line x1="312.45868" y1="334.01233" x2="266.336" y2="379.11792" stroke="#e74c3c" stroke-width="1" />
<polygon points="334.6908,491.24625 336.04446,403.43274 263.89377,465.81573" fill="#ecd65d" />
<line x1="263.89377" y1="465.81573" x2="334.6908" y2="491.24625" stroke="#e74c3c" stroke-width="1" />
<line x1="263.89377" y1="465.81573" x2="336.04446" y2="403.43274" stroke="#e74c3c" stroke-width="1" />
<polygon points="593.76166,684.7155 595.7203,738.41656 635.7974,688.4027" fill="#f0d95e" />
<line x1="595.7203" y1="738.41656" x2="593.76166" y2="684.7155" stroke="#e74c3c" stroke-width="1" />
<line x1="595.7203" y1="738.41656" x2="635.7974" y2="688.4027" stroke="#e74c3c" stroke-width="1" />
<polygon points="635.7974,688.4027 621.7628,747.7018 644.4822,682.0964" fill="#73692d" />
<line x1="635.7974" y1="688.4027" x2="621.7628" y2="747.7018" stroke="#e74c3c" stroke-width="1" />
<line x1="621.7628" y1="747.7018" x2="644.4822" y2="682.0964" stroke="#e74c3c" stroke-width="1" />
<polygon points="551.3083,626.61676 574.85034,671.9553 583.8135,612.2178" fill="#cdba50" />
<line x1="574.85034" y1="671.9553" x2="551.3083" y2="626.61676" stroke="#e74c3c" stroke-width="1" />
<polygon points="635.7974,688.4027 644.4822,682.0964 664.0834,619.2812" fill="#71672c" />
<line x1="635.7974" y1="688.4027" x2="644.4822" y2="682.0964" stroke="#e74c3c" stroke-width="1" />
<line x1="664.0834" y1="619.2812" x2="644.4822" y2="682.0964" stroke="#e74c3c" stroke-width="1" />
<polygon points="574.85034,671.9553 593.76166,684.7155 583.8135,612.2178" fill="#cfbb51" />
<line x1="574.85034" y1="671.9553" x2="583.8135" y2="612.2178" stroke="#e74c3c" stroke-width="1" />
<line x1="574.85034" y1="671.9553" x2="593.76166" y2="684.7155" stroke="#e74c3c" stroke-width="1" />
<polygon points="376.48035,348.62155 424.86218,323.51123 312.45868,334.01233" fill="#fee664" />
<line x1="376.48035" y1="348.62155" x2="312.45868" y2="334.01233" stroke="#e74c3c" stroke-width="1" />
<line x1="424.86218" y1="323.51123" x2="312.45868" y2="334.01233" stroke="#e74c3c" stroke-width="1" />
<polygon points="500.05103,570.5588 551.3083,626.61676 583.8135,612.2178" fill="#b4a346" />
<line x1="500.05103" y1="570.5588" x2="583.8135" y2="612.2178" stroke="#e74c3c" stroke-width="1" />
<line x1="551.3083" y1="626.61676" x2="500.05103" y2="570.5588" stroke="#e74c3c" stroke-width="1" />
<line x1="583.8135" y1="612.2178" x2="551.3083" y2="626.61676" stroke="#e74c3c" stroke-width="1" />
<polygon points="336.04446,403.43274 376.48035,348.62155 266.336,379.11792" fill="#fee664" />
<line x1="266.336" y1="379.11792" x2="336.04446" y2="403.43274" stroke="#e74c3c" stroke-width="1" />
<line x1="376.48035" y1="348.62155" x2="266.336" y2="379.11792" stroke="#e74c3c" stroke-width="1" />
<polygon points="334.6908,491.24625 371.0529,540.0134 394.52774,516.67413" fill="#b7a548" />
<line x1="371.0529" y1="540.0134" x2="334.6908" y2="491.24625" stroke="#e74c3c" stroke-width="1" />
<polygon points="549.68896,927.7435 556.6823,896.0146 547.3542,923.272" fill="#635927" />
<line x1="549.68896" y1="927.7435" x2="556.6823" y2="896.0146" stroke="#e74c3c" stroke-width="1" />
<polygon points="593.76166,684.7155 635.7974,688.4027 648.85455,609.34955" fill="#e6d15a" />
<line x1="593.76166" y1="684.7155" x2="635.7974" y2="688.4027" stroke="#e74c3c" stroke-width="1" />
<polygon points="532.74536,314.53387 468.5848,305.37057 424.86218,323.51123" fill="#fce563" />
<line x1="468.5848" y1="305.37057" x2="532.74536" y2="314.53387" stroke="#e74c3c" stroke-width="1" />
<line x1="468.5848" y1="305.37057" x2="424.86218" y2="323.51123" stroke="#e74c3c" stroke-width="1" />
<polygon points="556.6823,896.0146 525.2043,871.27496 514.75446,878.63934" fill="#b7a648" />
<line x1="556.6823" y1="896.0146" x2="525.2043" y2="871.27496" stroke="#e74c3c" stroke-width="1" />
<polygon points="459.79,936.55145 490.20776,961.4408 456.41818,901.5517" fill="#f2db5f" />
<line x1="459.79" y1="936.55145" x2="456.41818" y2="901.5517" stroke="#e74c3c" stroke-width="1" />
<line x1="490.20776" y1="961.4408" x2="459.79" y2="936.55145" stroke="#e74c3c" stroke-width="1" />
<polygon points="482.04468,882.3303 466.07092,870.83057 456.41818,901.5517" fill="#fee664" />
<line x1="456.41818" y1="901.5517" x2="466.07092" y2="870.83057" stroke="#e74c3c" stroke-width="1" />
<polygon points="540.04297,954.8029 549.68896,927.7435 547.3542,923.272" fill="#635927" />
<line x1="549.68896" y1="927.7435" x2="540.04297" y2="954.8029" stroke="#e74c3c" stroke-width="1" />
<line x1="549.68896" y1="927.7435" x2="547.3542" y2="923.272" stroke="#e74c3c" stroke-width="1" />
<polygon points="648.85455,609.34955 635.7974,688.4027 664.0834,619.2812" fill="#7d7131" />
<line x1="648.85455" y1="609.34955" x2="635.7974" y2="688.4027" stroke="#e74c3c" stroke-width="1" />
<line x1="635.7974" y1="688.4027" x2="664.0834" y2="619.2812" stroke="#e74c3c" stroke-width="1" />
<polygon points="371.0529,540.0134 421.29312,579.93854 394.52774,516.67413" fill="#c3b14c" />
<line x1="371.0529" y1="540.0134" x2="394.52774" y2="516.67413" stroke="#e74c3c" stroke-width="1" />
<line x1="421.29312" y1="579.93854" x2="371.0529" y2="540.0134" stroke="#e74c3c" stroke-width="1" />
<line x1="421.29312" y1="579.93854" x2="394.52774" y2="516.67413" stroke="#e74c3c" stroke-width="1" />
<polygon points="547.3542,923.272 556.6823,896.0146 514.75446,878.63934" fill="#b5a447" />
<line x1="547.3542" y1="923.272" x2="556.6823" y2="896.0146" stroke="#e74c3c" stroke-width="1" />
<line x1="556.6823" y1="896.0146" x2="514.75446" y2="878.63934" stroke="#e74c3c" stroke-width="1" />
<polygon points="466.07092,870.83057 482.04468,882.3303 468.49323,776.7361" fill="#f9e262" />
<line x1="468.49323" y1="776.7361" x2="466.07092" y2="870.83057" stroke="#e74c3c" stroke-width="1" />
<line x1="466.07092" y1="870.83057" x2="482.04468" y2="882.3303" stroke="#e74c3c" stroke-width="1" />
<polygon points="583.8135,612.2178 593.76166,684.7155 648.85455,609.34955" fill="#bcaa4a" />
<line x1="593.76166" y1="684.7155" x2="583.8135" y2="612.2178" stroke="#e74c3c" stroke-width="1" />
<line x1="593.76166" y1="684.7155" x2="648.85455" y2="609.34955" stroke="#e74c3c" stroke-width="1" />
<polygon points="489.70166,927.2409 482.04468,882.3303 456.41818,901.5517" fill="#fee664" />
<line x1="456.41818" y1="901.5517" x2="482.04468" y2="882.3303" stroke="#e74c3c" stroke-width="1" />
<polygon points="490.20776,961.4408 489.70166,927.2409 456.41818,901.5517" fill="#f4dd60" />
<line x1="490.20776" y1="961.4408" x2="456.41818" y2="901.5517" stroke="#e74c3c" stroke-width="1" />
<line x1="456.41818" y1="901.5517" x2="489.70166" y2="927.2409" stroke="#e74c3c" stroke-width="1" />
<polygon points="514.75446,878.63934 525.2043,871.27496 513.2669,791.5534" fill="#877b35" />
<line x1="514.75446" y1="878.63934" x2="525.2043" y2="871.27496" stroke="#e74c3c" stroke-width="1" />
<polygon points="336.04446,403.43274 334.6908,491.24625 394.52774,516.67413" fill="#edd65d" />
<line x1="334.6908" y1="491.24625" x2="336.04446" y2="403.43274" stroke="#e74c3c" stroke-width="1" />
<line x1="334.6908" y1="491.24625" x2="394.52774" y2="516.67413" stroke="#e74c3c" stroke-width="1" />
<polygon points="490.20776,961.4408 540.04297,954.8029 489.70166,927.2409" fill="#d7c354" />
<line x1="489.70166" y1="927.2409" x2="490.20776" y2="961.4408" stroke="#e74c3c" stroke-width="1" />
<line x1="540.04297" y1="954.8029" x2="490.20776" y2="961.4408" stroke="#e74c3c" stroke-width="1" />
<polygon points="482.04468,882.3303 489.70166,927.2409 514.75446,878.63934" fill="#fee664" />
<line x1="489.70166" y1="927.2409" x2="482.04468" y2="882.3303" stroke="#e74c3c" stroke-width="1" />
<polygon points="525.2043,871.27496 530.9111,782.79755 513.2669,791.5534" fill="#a79741" />
<line x1="525.2043" y1="871.27496" x2="513.2669" y2="791.5534" stroke="#e74c3c" stroke-width="1" />
<line x1="525.2043" y1="871.27496" x2="530.9111" y2="782.79755" stroke="#e74c3c" stroke-width="1" />
<polygon points="540.04297,954.8029 547.3542,923.272 489.70166,927.2409" fill="#d3bf53" />
<line x1="540.04297" y1="954.8029" x2="489.70166" y2="927.2409" stroke="#e74c3c" stroke-width="1" />
<line x1="540.04297" y1="954.8029" x2="547.3542" y2="923.272" stroke="#e74c3c" stroke-width="1" />
<polygon points="483.44064,789.2916 482.04468,882.3303 514.75446,878.63934" fill="#f2db5f" />
<line x1="514.75446" y1="878.63934" x2="482.04468" y2="882.3303" stroke="#e74c3c" stroke-width="1" />
<polygon points="489.70166,927.2409 547.3542,923.272 514.75446,878.63934" fill="#fee664" />
<line x1="489.70166" y1="927.2409" x2="514.75446" y2="878.63934" stroke="#e74c3c" stroke-width="1" />
<line x1="547.3542" y1="923.272" x2="489.70166" y2="927.2409" stroke="#e74c3c" stroke-width="1" />
<line x1="514.75446" y1="878.63934" x2="547.3542" y2="923.272" stroke="#e74c3c" stroke-width="1" />
<polygon points="482.04468,882.3303 483.44064,789.2916 468.49323,776.7361" fill="#fbe363" />
<line x1="482.04468" y1="882.3303" x2="468.49323" y2="776.7361" stroke="#e74c3c" stroke-width="1" />
<line x1="482.04468" y1="882.3303" x2="483.44064" y2="789.2916" stroke="#e74c3c" stroke-width="1" />
<polygon points="480.2677,333.78314 532.74536,314.53387 424.86218,323.51123" fill="#fae362" />
<line x1="532.74536" y1="314.53387" x2="424.86218" y2="323.51123" stroke="#e74c3c" stroke-width="1" />
<polygon points="376.48035,348.62155 432.7341,362.4668 424.86218,323.51123" fill="#fee664" />
<line x1="424.86218" y1="323.51123" x2="376.48035" y2="348.62155" stroke="#e74c3c" stroke-width="1" />
<polygon points="513.2669,791.5534 483.44064,789.2916 514.75446,878.63934" fill="#f5de60" />
<line x1="513.2669" y1="791.5534" x2="514.75446" y2="878.63934" stroke="#e74c3c" stroke-width="1" />
<line x1="483.44064" y1="789.2916" x2="514.75446" y2="878.63934" stroke="#e74c3c" stroke-width="1" />
<polygon points="720.55426,546.1799 662.48987,552.86487 664.0834,619.2812" fill="#7c7030" />
<line x1="720.55426" y1="546.1799" x2="664.0834" y2="619.2812" stroke="#e74c3c" stroke-width="1" />
<polygon points="662.48987,552.86487 648.85455,609.34955 664.0834,619.2812" fill="#786d2f" />
<line x1="662.48987" y1="552.86487" x2="664.0834" y2="619.2812" stroke="#e74c3c" stroke-width="1" />
<line x1="664.0834" y1="619.2812" x2="648.85455" y2="609.34955" stroke="#e74c3c" stroke-width="1" />
<polygon points="336.04446,403.43274 393.13382,434.40884 376.48035,348.62155" fill="#fee664" />
<line x1="376.48035" y1="348.62155" x2="336.04446" y2="403.43274" stroke="#e74c3c" stroke-width="1" />
<polygon points="466.50824,708.6606 468.49323,776.7361 481.5164,722.772" fill="#f2db5f" />
<line x1="466.50824" y1="708.6606" x2="468.49323" y2="776.7361" stroke="#e74c3c" stroke-width="1" />
<polygon points="468.49323,776.7361 483.44064,789.2916 481.5164,722.772" fill="#f3dc5f" />
<line x1="468.49323" y1="776.7361" x2="481.5164" y2="722.772" stroke="#e74c3c" stroke-width="1" />
<line x1="468.49323" y1="776.7361" x2="483.44064" y2="789.2916" stroke="#e74c3c" stroke-width="1" />
<polygon points="432.7341,362.4668 480.2677,333.78314 424.86218,323.51123" fill="#fee664" />
<line x1="432.7341" y1="362.4668" x2="424.86218" y2="323.51123" stroke="#e74c3c" stroke-width="1" />
<line x1="480.2677" y1="333.78314" x2="424.86218" y2="323.51123" stroke="#e74c3c" stroke-width="1" />
<polygon points="513.2669,791.5534 530.9111,782.79755 520.78876,722.65027" fill="#a1923f" />
<line x1="513.2669" y1="791.5534" x2="530.9111" y2="782.79755" stroke="#e74c3c" stroke-width="1" />
<polygon points="483.44064,789.2916 513.2669,791.5534 481.5164,722.772" fill="#eed85d" />
<line x1="483.44064" y1="789.2916" x2="481.5164" y2="722.772" stroke="#e74c3c" stroke-width="1" />
<line x1="483.44064" y1="789.2916" x2="513.2669" y2="791.5534" stroke="#e74c3c" stroke-width="1" />
<polygon points="530.9111,782.79755 551.77686,715.93567 520.78876,722.65027" fill="#bdab4a" />
<line x1="530.9111" y1="782.79755" x2="520.78876" y2="722.65027" stroke="#e74c3c" stroke-width="1" />
<line x1="530.9111" y1="782.79755" x2="551.77686" y2="715.93567" stroke="#e74c3c" stroke-width="1" />
<polygon points="393.13382,434.40884 336.04446,403.43274 394.52774,516.67413" fill="#eed75d" />
<line x1="336.04446" y1="403.43274" x2="393.13382" y2="434.40884" stroke="#e74c3c" stroke-width="1" />
<line x1="394.52774" y1="516.67413" x2="336.04446" y2="403.43274" stroke="#e74c3c" stroke-width="1" />
<polygon points="459.8012,657.21313 466.50824,708.6606 480.42404,664.9931" fill="#efd95e" />
<line x1="459.8012" y1="657.21313" x2="466.50824" y2="708.6606" stroke="#e74c3c" stroke-width="1" />
<polygon points="745.1821,486.70987 675.07965,525.4235 720.55426,546.1799" fill="#867934" />
<line x1="745.1821" y1="486.70987" x2="720.55426" y2="546.1799" stroke="#e74c3c" stroke-width="1" />
<polygon points="583.8135,612.2178 648.85455,609.34955 662.48987,552.86487" fill="#a79741" />
<line x1="662.48987" y1="552.86487" x2="583.8135" y2="612.2178" stroke="#e74c3c" stroke-width="1" />
<line x1="648.85455" y1="609.34955" x2="583.8135" y2="612.2178" stroke="#e74c3c" stroke-width="1" />
<line x1="662.48987" y1="552.86487" x2="648.85455" y2="609.34955" stroke="#e74c3c" stroke-width="1" />
<polygon points="459.8012,657.21313 480.42404,664.9931 425.09238,599.9312" fill="#dfca58" />
<line x1="425.09238" y1="599.9312" x2="459.8012" y2="657.21313" stroke="#e74c3c" stroke-width="1" />
<line x1="459.8012" y1="657.21313" x2="480.42404" y2="664.9931" stroke="#e74c3c" stroke-width="1" />
<polygon points="513.2669,791.5534 520.78876,722.65027 481.5164,722.772" fill="#efd85e" />
<line x1="513.2669" y1="791.5534" x2="481.5164" y2="722.772" stroke="#e74c3c" stroke-width="1" />
<line x1="513.2669" y1="791.5534" x2="520.78876" y2="722.65027" stroke="#e74c3c" stroke-width="1" />
<polygon points="466.50824,708.6606 481.5164,722.772 480.42404,664.9931" fill="#f0d95e" />
<line x1="466.50824" y1="708.6606" x2="480.42404" y2="664.9931" stroke="#e74c3c" stroke-width="1" />
<line x1="466.50824" y1="708.6606" x2="481.5164" y2="722.772" stroke="#e74c3c" stroke-width="1" />
<polygon points="393.13382,434.40884 432.7341,362.4668 376.48035,348.62155" fill="#fee664" />
<line x1="393.13382" y1="434.40884" x2="376.48035" y2="348.62155" stroke="#e74c3c" stroke-width="1" />
<line x1="432.7341" y1="362.4668" x2="376.48035" y2="348.62155" stroke="#e74c3c" stroke-width="1" />
<polygon points="532.74536,314.53387 480.2677,333.78314 552.09625,318.42203" fill="#f3dc5f" />
<line x1="532.74536" y1="314.53387" x2="480.2677" y2="333.78314" stroke="#e74c3c" stroke-width="1" />
<polygon points="598.0874,300.3165 532.74536,314.53387 552.09625,318.42203" fill="#f3dc5f" />
<line x1="552.09625" y1="318.42203" x2="598.0874" y2="300.3165" stroke="#e74c3c" stroke-width="1" />
<line x1="532.74536" y1="314.53387" x2="598.0874" y2="300.3165" stroke="#e74c3c" stroke-width="1" />
<line x1="532.74536" y1="314.53387" x2="552.09625" y2="318.42203" stroke="#e74c3c" stroke-width="1" />
<polygon points="394.52774,516.67413 425.09238,599.9312 468.8956,617.76556" fill="#d7c354" />
<line x1="394.52774" y1="516.67413" x2="425.09238" y2="599.9312" stroke="#e74c3c" stroke-width="1" />
<polygon points="675.07965,525.4235 662.48987,552.86487 720.55426,546.1799" fill="#847734" />
<line x1="675.07965" y1="525.4235" x2="720.55426" y2="546.1799" stroke="#e74c3c" stroke-width="1" />
<line x1="720.55426" y1="546.1799" x2="662.48987" y2="552.86487" stroke="#e74c3c" stroke-width="1" />
<polygon points="520.78876,722.65027 551.77686,715.93567 534.66614,653.6494" fill="#bba949" />
<line x1="520.78876" y1="722.65027" x2="551.77686" y2="715.93567" stroke="#e74c3c" stroke-width="1" />
<polygon points="745.1821,486.70987 749.6122,414.1516 675.07965,525.4235" fill="#93853a" />
<line x1="745.1821" y1="486.70987" x2="675.07965" y2="525.4235" stroke="#e74c3c" stroke-width="1" />
<line x1="749.6122" y1="414.1516" x2="745.1821" y2="486.70987" stroke="#e74c3c" stroke-width="1" />
<polygon points="481.5164,722.772 520.78876,722.65027 534.66614,653.6494" fill="#e3ce59" />
<line x1="481.5164" y1="722.772" x2="520.78876" y2="722.65027" stroke="#e74c3c" stroke-width="1" />
<line x1="520.78876" y1="722.65027" x2="534.66614" y2="653.6494" stroke="#e74c3c" stroke-width="1" />
<polygon points="480.42404,664.9931 468.8956,617.76556 425.09238,599.9312" fill="#cebb51" />
<line x1="480.42404" y1="664.9931" x2="425.09238" y2="599.9312" stroke="#e74c3c" stroke-width="1" />
<line x1="425.09238" y1="599.9312" x2="468.8956" y2="617.76556" stroke="#e74c3c" stroke-width="1" />
<polygon points="480.42404,664.9931 481.5164,722.772 534.66614,653.6494" fill="#fde563" />
<line x1="481.5164" y1="722.772" x2="480.42404" y2="664.9931" stroke="#e74c3c" stroke-width="1" />
<line x1="481.5164" y1="722.772" x2="534.66614" y2="653.6494" stroke="#e74c3c" stroke-width="1" />
<polygon points="551.77686,715.93567 587.51636,622.2557 534.66614,653.6494" fill="#b4a347" />
<line x1="551.77686" y1="715.93567" x2="534.66614" y2="653.6494" stroke="#e74c3c" stroke-width="1" />
<line x1="551.77686" y1="715.93567" x2="587.51636" y2="622.2557" stroke="#e74c3c" stroke-width="1" />
<polygon points="552.09625,318.42203 480.2677,333.78314 432.7341,362.4668" fill="#fee664" />
<line x1="552.09625" y1="318.42203" x2="480.2677" y2="333.78314" stroke="#e74c3c" stroke-width="1" />
<line x1="480.2677" y1="333.78314" x2="432.7341" y2="362.4668" stroke="#e74c3c" stroke-width="1" />
<polygon points="393.13382,434.40884 394.52774,516.67413 468.52942,529.2086" fill="#efd85e" />
<line x1="394.52774" y1="516.67413" x2="393.13382" y2="434.40884" stroke="#e74c3c" stroke-width="1" />
<polygon points="587.51636,622.2557 662.48987,552.86487 534.66614,653.6494" fill="#7e7231" />
<line x1="587.51636" y1="622.2557" x2="534.66614" y2="653.6494" stroke="#e74c3c" stroke-width="1" />
<line x1="587.51636" y1="622.2557" x2="662.48987" y2="552.86487" stroke="#e74c3c" stroke-width="1" />
<polygon points="468.8956,617.76556 480.42404,664.9931 534.66614,653.6494" fill="#c1af4c" />
<line x1="480.42404" y1="664.9931" x2="468.8956" y2="617.76556" stroke="#e74c3c" stroke-width="1" />
<line x1="480.42404" y1="664.9931" x2="534.66614" y2="653.6494" stroke="#e74c3c" stroke-width="1" />
<polygon points="883.6551,81.46364 881.2536,81.11024 824.53705,110.632835" fill="#fee664" />
<line x1="881.2536" y1="81.11024" x2="883.6551" y2="81.46364" stroke="#e74c3c" stroke-width="1" />
<line x1="824.53705" y1="110.632835" x2="881.2536" y2="81.11024" stroke="#e74c3c" stroke-width="1" />
<polygon points="468.52942,529.2086 394.52774,516.67413 468.8956,617.76556" fill="#fbe362" />
<line x1="394.52774" y1="516.67413" x2="468.52942" y2="529.2086" stroke="#e74c3c" stroke-width="1" />
<line x1="394.52774" y1="516.67413" x2="468.8956" y2="617.76556" stroke="#e74c3c" stroke-width="1" />
<polygon points="884.0101,83.2336 883.6551,81.46364 865.0191,108.88842" fill="#8e8037" />
<line x1="883.6551" y1="81.46364" x2="884.0101" y2="83.2336" stroke="#e74c3c" stroke-width="1" />
<polygon points="749.6122,414.1516 702.36273,461.6885 675.07965,525.4235" fill="#72672d" />
<line x1="749.6122" y1="414.1516" x2="675.07965" y2="525.4235" stroke="#e74c3c" stroke-width="1" />
<polygon points="432.7341,362.4668 393.13382,434.40884 479.42783,439.4906" fill="#fee664" />
<line x1="393.13382" y1="434.40884" x2="432.7341" y2="362.4668" stroke="#e74c3c" stroke-width="1" />
<polygon points="749.6122,414.1516 793.1422,337.10275 702.36273,461.6885" fill="#635a27" />
<line x1="749.6122" y1="414.1516" x2="702.36273" y2="461.6885" stroke="#e74c3c" stroke-width="1" />
<line x1="793.1422" y1="337.10275" x2="749.6122" y2="414.1516" stroke="#e74c3c" stroke-width="1" />
<polygon points="510.31912,347.71024 552.09625,318.42203 432.7341,362.4668" fill="#fee664" />
<line x1="510.31912" y1="347.71024" x2="552.09625" y2="318.42203" stroke="#e74c3c" stroke-width="1" />
<line x1="552.09625" y1="318.42203" x2="432.7341" y2="362.4668" stroke="#e74c3c" stroke-width="1" />
<polygon points="876.2846,127.09987 884.0101,83.2336 865.0191,108.88842" fill="#a39440" />
<line x1="876.2846" y1="127.09987" x2="884.0101" y2="83.2336" stroke="#e74c3c" stroke-width="1" />
<line x1="884.0101" y1="83.2336" x2="865.0191" y2="108.88842" stroke="#e74c3c" stroke-width="1" />
<polygon points="865.0191,108.88842 883.6551,81.46364 824.53705,110.632835" fill="#fee664" />
<line x1="883.6551" y1="81.46364" x2="865.0191" y2="108.88842" stroke="#e74c3c" stroke-width="1" />
<line x1="883.6551" y1="81.46364" x2="824.53705" y2="110.632835" stroke="#e74c3c" stroke-width="1" />
<polygon points="662.48987,552.86487 571.17706,580.4205 534.66614,653.6494" fill="#827633" />
<line x1="662.48987" y1="552.86487" x2="534.66614" y2="653.6494" stroke="#e74c3c" stroke-width="1" />
<polygon points="662.48987,552.86487 675.07965,525.4235 571.17706,580.4205" fill="#918339" />
<line x1="662.48987" y1="552.86487" x2="571.17706" y2="580.4205" stroke="#e74c3c" stroke-width="1" />
<line x1="675.07965" y1="525.4235" x2="662.48987" y2="552.86487" stroke="#e74c3c" stroke-width="1" />
<polygon points="510.31912,347.71024 432.7341,362.4668 479.42783,439.4906" fill="#fee664" />
<line x1="510.31912" y1="347.71024" x2="432.7341" y2="362.4668" stroke="#e74c3c" stroke-width="1" />
<line x1="479.42783" y1="439.4906" x2="432.7341" y2="362.4668" stroke="#e74c3c" stroke-width="1" />
<polygon points="479.42783,439.4906 393.13382,434.40884 468.52942,529.2086" fill="#fee664" />
<line x1="479.42783" y1="439.4906" x2="393.13382" y2="434.40884" stroke="#e74c3c" stroke-width="1" />
<line x1="468.52942" y1="529.2086" x2="393.13382" y2="434.40884" stroke="#e74c3c" stroke-width="1" />
<polygon points="571.17706,580.4205 468.8956,617.76556 534.66614,653.6494" fill="#c5b24d" />
<line x1="534.66614" y1="653.6494" x2="571.17706" y2="580.4205" stroke="#e74c3c" stroke-width="1" />
<line x1="534.66614" y1="653.6494" x2="468.8956" y2="617.76556" stroke="#e74c3c" stroke-width="1" />
<polygon points="865.0191,108.88842 824.53705,110.632835 782.9618,138.2139" fill="#fee664" />
<line x1="865.0191" y1="108.88842" x2="824.53705" y2="110.632835" stroke="#e74c3c" stroke-width="1" />
<line x1="782.9618" y1="138.2139" x2="824.53705" y2="110.632835" stroke="#e74c3c" stroke-width="1" />
<polygon points="875.77234,186.23384 876.2846,127.09987 834.2254,147.6754" fill="#bcab4a" />
<line x1="875.77234" y1="186.23384" x2="834.2254" y2="147.6754" stroke="#e74c3c" stroke-width="1" />
<line x1="876.2846" y1="127.09987" x2="875.77234" y2="186.23384" stroke="#e74c3c" stroke-width="1" />
<polygon points="876.2846,127.09987 865.0191,108.88842 834.2254,147.6754" fill="#a0913f" />
<line x1="876.2846" y1="127.09987" x2="834.2254" y2="147.6754" stroke="#e74c3c" stroke-width="1" />
<line x1="876.2846" y1="127.09987" x2="865.0191" y2="108.88842" stroke="#e74c3c" stroke-width="1" />
<polygon points="667.6374,227.42278 697.9449,195.62299 609.134,275.83893" fill="#f8e162" />
<line x1="697.9449" y1="195.62299" x2="609.134" y2="275.83893" stroke="#e74c3c" stroke-width="1" />
<polygon points="793.1422,337.10275 757.49786,366.5426 702.36273,461.6885" fill="#685e29" />
<line x1="793.1422" y1="337.10275" x2="702.36273" y2="461.6885" stroke="#e74c3c" stroke-width="1" />
<line x1="793.1422" y1="337.10275" x2="757.49786" y2="366.5426" stroke="#e74c3c" stroke-width="1" />
<polygon points="510.31912,347.71024 577.67053,347.80585 609.134,275.83893" fill="#fee664" />
<line x1="510.31912" y1="347.71024" x2="609.134" y2="275.83893" stroke="#e74c3c" stroke-width="1" />
<polygon points="702.36273,461.6885 639.11804,425.73514 675.07965,525.4235" fill="#a69741" />
<line x1="702.36273" y1="461.6885" x2="675.07965" y2="525.4235" stroke="#e74c3c" stroke-width="1" />
<polygon points="834.2254,147.6754 865.0191,108.88842 782.9618,138.2139" fill="#fee664" />
<line x1="834.2254" y1="147.6754" x2="782.9618" y2="138.2139" stroke="#e74c3c" stroke-width="1" />
<line x1="834.2254" y1="147.6754" x2="865.0191" y2="108.88842" stroke="#e74c3c" stroke-width="1" />
<line x1="865.0191" y1="108.88842" x2="782.9618" y2="138.2139" stroke="#e74c3c" stroke-width="1" />
<polygon points="766.296,133.97733 697.9449,195.62299 667.6374,227.42278" fill="#f5de60" />
<line x1="766.296" y1="133.97733" x2="667.6374" y2="227.42278" stroke="#e74c3c" stroke-width="1" />
<line x1="697.9449" y1="195.62299" x2="766.296" y2="133.97733" stroke="#e74c3c" stroke-width="1" />
<line x1="667.6374" y1="227.42278" x2="697.9449" y2="195.62299" stroke="#e74c3c" stroke-width="1" />
<polygon points="468.52942,529.2086 468.8956,617.76556 596.0715,513.8564" fill="#fde563" />
<line x1="468.8956" y1="617.76556" x2="468.52942" y2="529.2086" stroke="#e74c3c" stroke-width="1" />
<polygon points="675.07965,525.4235 596.0715,513.8564 571.17706,580.4205" fill="#95873a" />
<line x1="675.07965" y1="525.4235" x2="571.17706" y2="580.4205" stroke="#e74c3c" stroke-width="1" />
<polygon points="468.8956,617.76556 571.17706,580.4205 596.0715,513.8564" fill="#ebd55c" />
<line x1="468.8956" y1="617.76556" x2="596.0715" y2="513.8564" stroke="#e74c3c" stroke-width="1" />
<line x1="468.8956" y1="617.76556" x2="571.17706" y2="580.4205" stroke="#e74c3c" stroke-width="1" />
<line x1="571.17706" y1="580.4205" x2="596.0715" y2="513.8564" stroke="#e74c3c" stroke-width="1" />
<polygon points="609.134,275.83893 577.67053,347.80585 648.75354,278.84076" fill="#fee664" />
<line x1="577.67053" y1="347.80585" x2="609.134" y2="275.83893" stroke="#e74c3c" stroke-width="1" />
<polygon points="667.6374,227.42278 609.134,275.83893 648.75354,278.84076" fill="#fee664" />
<line x1="609.134" y1="275.83893" x2="667.6374" y2="227.42278" stroke="#e74c3c" stroke-width="1" />
<line x1="609.134" y1="275.83893" x2="648.75354" y2="278.84076" stroke="#e74c3c" stroke-width="1" />
<polygon points="479.42783,439.4906 468.52942,529.2086 555.1554,408.10562" fill="#fce463" />
<line x1="468.52942" y1="529.2086" x2="479.42783" y2="439.4906" stroke="#e74c3c" stroke-width="1" />
<polygon points="479.42783,439.4906 555.1554,408.10562 510.31912,347.71024" fill="#fee664" />
<line x1="479.42783" y1="439.4906" x2="510.31912" y2="347.71024" stroke="#e74c3c" stroke-width="1" />
<line x1="555.1554" y1="408.10562" x2="479.42783" y2="439.4906" stroke="#e74c3c" stroke-width="1" />
<polygon points="555.1554,408.10562 577.67053,347.80585 510.31912,347.71024" fill="#fee664" />
<line x1="555.1554" y1="408.10562" x2="510.31912" y2="347.71024" stroke="#e74c3c" stroke-width="1" />
<line x1="577.67053" y1="347.80585" x2="510.31912" y2="347.71024" stroke="#e74c3c" stroke-width="1" />
<polygon points="639.11804,425.73514 596.0715,513.8564 675.07965,525.4235" fill="#9e8f3e" />
<line x1="639.11804" y1="425.73514" x2="675.07965" y2="525.4235" stroke="#e74c3c" stroke-width="1" />
<line x1="675.07965" y1="525.4235" x2="596.0715" y2="513.8564" stroke="#e74c3c" stroke-width="1" />
<polygon points="757.49786,366.5426 711.94385,341.16858 702.36273,461.6885" fill="#9c8d3d" />
<line x1="757.49786" y1="366.5426" x2="702.36273" y2="461.6885" stroke="#e74c3c" stroke-width="1" />
<polygon points="468.52942,529.2086 596.0715,513.8564 555.1554,408.10562" fill="#fde563" />
<line x1="468.52942" y1="529.2086" x2="555.1554" y2="408.10562" stroke="#e74c3c" stroke-width="1" />
<line x1="468.52942" y1="529.2086" x2="596.0715" y2="513.8564" stroke="#e74c3c" stroke-width="1" />
<polygon points="834.98065,141.67563 766.296,133.97733 751.3852,132.6132" fill="#e6d05a" />
<line x1="766.296" y1="133.97733" x2="834.98065" y2="141.67563" stroke="#e74c3c" stroke-width="1" />
<line x1="751.3852" y1="132.6132" x2="766.296" y2="133.97733" stroke="#e74c3c" stroke-width="1" />
<polygon points="648.75354,278.84076 577.67053,347.80585 555.1554,408.10562" fill="#fee664" />
<line x1="648.75354" y1="278.84076" x2="577.67053" y2="347.80585" stroke="#e74c3c" stroke-width="1" />
<line x1="555.1554" y1="408.10562" x2="577.67053" y2="347.80585" stroke="#e74c3c" stroke-width="1" />
<polygon points="711.94385,341.16858 639.11804,425.73514 702.36273,461.6885" fill="#a0913f" />
<line x1="711.94385" y1="341.16858" x2="702.36273" y2="461.6885" stroke="#e74c3c" stroke-width="1" />
<line x1="702.36273" y1="461.6885" x2="639.11804" y2="425.73514" stroke="#e74c3c" stroke-width="1" />
<polygon points="629.0185,366.44714 648.75354,278.84076 555.1554,408.10562" fill="#fbe463" />
<line x1="648.75354" y1="278.84076" x2="555.1554" y2="408.10562" stroke="#e74c3c" stroke-width="1" />
<polygon points="629.0185,366.44714 555.1554,408.10562 596.0715,513.8564" fill="#fde563" />
<line x1="555.1554" y1="408.10562" x2="629.0185" y2="366.44714" stroke="#e74c3c" stroke-width="1" />
<line x1="596.0715" y1="513.8564" x2="555.1554" y2="408.10562" stroke="#e74c3c" stroke-width="1" />
<polygon points="801.5504,140.55846 834.98065,141.67563 751.3852,132.6132" fill="#eed85d" />
<line x1="751.3852" y1="132.6132" x2="801.5504" y2="140.55846" stroke="#e74c3c" stroke-width="1" />
<line x1="834.98065" y1="141.67563" x2="751.3852" y2="132.6132" stroke="#e74c3c" stroke-width="1" />
<polygon points="667.6374,227.42278 648.75354,278.84076 697.67633,188.66676" fill="#ebd55c" />
<line x1="697.67633" y1="188.66676" x2="667.6374" y2="227.42278" stroke="#e74c3c" stroke-width="1" />
<line x1="648.75354" y1="278.84076" x2="667.6374" y2="227.42278" stroke="#e74c3c" stroke-width="1" />
<polygon points="639.11804,425.73514 629.0185,366.44714 596.0715,513.8564" fill="#f5de60" />
<line x1="596.0715" y1="513.8564" x2="639.11804" y2="425.73514" stroke="#e74c3c" stroke-width="1" />
<line x1="596.0715" y1="513.8564" x2="629.0185" y2="366.44714" stroke="#e74c3c" stroke-width="1" />
<polygon points="879.91284,184.52469 834.98065,141.67563 801.5504,140.55846" fill="#fae262" />
<line x1="834.98065" y1="141.67563" x2="879.91284" y2="184.52469" stroke="#e74c3c" stroke-width="1" />
<line x1="834.98065" y1="141.67563" x2="801.5504" y2="140.55846" stroke="#e74c3c" stroke-width="1" />
<polygon points="697.67633,188.66676 648.75354,278.84076 629.0185,366.44714" fill="#f3dc5f" />
<line x1="697.67633" y1="188.66676" x2="648.75354" y2="278.84076" stroke="#e74c3c" stroke-width="1" />
<line x1="629.0185" y1="366.44714" x2="648.75354" y2="278.84076" stroke="#e74c3c" stroke-width="1" />
<polygon points="691.80774,269.67407 629.0185,366.44714 639.11804,425.73514" fill="#f8e061" />
<line x1="639.11804" y1="425.73514" x2="629.0185" y2="366.44714" stroke="#e74c3c" stroke-width="1" />
<polygon points="841.14905,352.4266 801.7341,318.70532 757.49786,366.5426" fill="#837733" />
<line x1="841.14905" y1="352.4266" x2="757.49786" y2="366.5426" stroke="#e74c3c" stroke-width="1" />
<polygon points="801.7341,318.70532 711.94385,341.16858 757.49786,366.5426" fill="#7e7231" />
<line x1="801.7341" y1="318.70532" x2="757.49786" y2="366.5426" stroke="#e74c3c" stroke-width="1" />
<line x1="757.49786" y1="366.5426" x2="711.94385" y2="341.16858" stroke="#e74c3c" stroke-width="1" />
<polygon points="711.94385,341.16858 691.80774,269.67407 639.11804,425.73514" fill="#ccb850" />
<line x1="639.11804" y1="425.73514" x2="711.94385" y2="341.16858" stroke="#e74c3c" stroke-width="1" />
<line x1="691.80774" y1="269.67407" x2="639.11804" y2="425.73514" stroke="#e74c3c" stroke-width="1" />
<polygon points="841.40454,182.9918 879.91284,184.52469 801.5504,140.55846" fill="#f8e061" />
<line x1="879.91284" y1="184.52469" x2="801.5504" y2="140.55846" stroke="#e74c3c" stroke-width="1" />
<polygon points="691.80774,269.67407 697.67633,188.66676 629.0185,366.44714" fill="#fce463" />
<line x1="691.80774" y1="269.67407" x2="629.0185" y2="366.44714" stroke="#e74c3c" stroke-width="1" />
<line x1="697.67633" y1="188.66676" x2="629.0185" y2="366.44714" stroke="#e74c3c" stroke-width="1" />
<polygon points="937.3213,284.22464 935.54004,271.43478 914.9098,318.83572" fill="#71662c" />
<line x1="914.9098" y1="318.83572" x2="937.3213" y2="284.22464" stroke="#e74c3c" stroke-width="1" />
<line x1="935.54004" y1="271.43478" x2="937.3213" y2="284.22464" stroke="#e74c3c" stroke-width="1" />
<polygon points="930.93256,218.59137 879.91284,184.52469 841.40454,182.9918" fill="#f7df61" />
<line x1="879.91284" y1="184.52469" x2="930.93256" y2="218.59137" stroke="#e74c3c" stroke-width="1" />
<line x1="879.91284" y1="184.52469" x2="841.40454" y2="182.9918" stroke="#e74c3c" stroke-width="1" />
<polygon points="774.03925,87.83969 753.5567,100.6299 801.5504,140.55846" fill="#ab9b43" />
<line x1="774.03925" y1="87.83969" x2="801.5504" y2="140.55846" stroke="#e74c3c" stroke-width="1" />
<polygon points="801.5504,140.55846 766.3467,168.46365 841.40454,182.9918" fill="#f4dd60" />
<line x1="801.5504" y1="140.55846" x2="841.40454" y2="182.9918" stroke="#e74c3c" stroke-width="1" />
<polygon points="914.9098,318.83572 896.3284,284.89215 841.14905,352.4266" fill="#ac9c43" />
<line x1="914.9098" y1="318.83572" x2="841.14905" y2="352.4266" stroke="#e74c3c" stroke-width="1" />
<polygon points="753.5567,100.6299 766.3467,168.46365 801.5504,140.55846" fill="#b3a246" />
<line x1="753.5567" y1="100.6299" x2="801.5504" y2="140.55846" stroke="#e74c3c" stroke-width="1" />
<line x1="801.5504" y1="140.55846" x2="766.3467" y2="168.46365" stroke="#e74c3c" stroke-width="1" />
<polygon points="789.73315,242.99184 691.80774,269.67407 711.94385,341.16858" fill="#d1bd52" />
<line x1="711.94385" y1="341.16858" x2="691.80774" y2="269.67407" stroke="#e74c3c" stroke-width="1" />
<polygon points="891.8288,227.06699 930.93256,218.59137 841.40454,182.9918" fill="#fee664" />
<line x1="930.93256" y1="218.59137" x2="841.40454" y2="182.9918" stroke="#e74c3c" stroke-width="1" />
<polygon points="766.3467,168.46365 697.67633,188.66676 691.80774,269.67407" fill="#fee664" />
<line x1="691.80774" y1="269.67407" x2="697.67633" y2="188.66676" stroke="#e74c3c" stroke-width="1" />
<polygon points="896.3284,284.89215 801.7341,318.70532 841.14905,352.4266" fill="#8d8037" />
<line x1="896.3284" y1="284.89215" x2="841.14905" y2="352.4266" stroke="#e74c3c" stroke-width="1" />
<line x1="841.14905" y1="352.4266" x2="801.7341" y2="318.70532" stroke="#e74c3c" stroke-width="1" />
<polygon points="705.5789,109.15994 697.67633,188.66676 766.3467,168.46365" fill="#efd85e" />
<line x1="705.5789" y1="109.15994" x2="697.67633" y2="188.66676" stroke="#e74c3c" stroke-width="1" />
<line x1="766.3467" y1="168.46365" x2="697.67633" y2="188.66676" stroke="#e74c3c" stroke-width="1" />
<polygon points="930.93256,218.59137 891.8288,227.06699 935.54004,271.43478" fill="#e7d15b" />
<line x1="930.93256" y1="218.59137" x2="935.54004" y2="271.43478" stroke="#e74c3c" stroke-width="1" />
<line x1="891.8288" y1="227.06699" x2="930.93256" y2="218.59137" stroke="#e74c3c" stroke-width="1" />
<polygon points="935.54004,271.43478 896.3284,284.89215 914.9098,318.83572" fill="#b4a347" />
<line x1="935.54004" y1="271.43478" x2="914.9098" y2="318.83572" stroke="#e74c3c" stroke-width="1" />
<line x1="896.3284" y1="284.89215" x2="914.9098" y2="318.83572" stroke="#e74c3c" stroke-width="1" />
<polygon points="801.7341,318.70532 789.73315,242.99184 711.94385,341.16858" fill="#e9d35b" />
<line x1="711.94385" y1="341.16858" x2="801.7341" y2="318.70532" stroke="#e74c3c" stroke-width="1" />
<line x1="789.73315" y1="242.99184" x2="711.94385" y2="341.16858" stroke="#e74c3c" stroke-width="1" />
<polygon points="738.0737,44.7658 753.5567,100.6299 774.03925,87.83969" fill="#bba949" />
<line x1="774.03925" y1="87.83969" x2="753.5567" y2="100.6299" stroke="#e74c3c" stroke-width="1" />
<polygon points="740.02264,43.326916 738.0737,44.7658 774.03925,87.83969" fill="#b9a749" />
<line x1="774.03925" y1="87.83969" x2="740.02264" y2="43.326916" stroke="#e74c3c" stroke-width="1" />
<line x1="738.0737" y1="44.7658" x2="774.03925" y2="87.83969" stroke="#e74c3c" stroke-width="1" />
<polygon points="734.88696,43.417187 705.5789,109.15994 753.5567,100.6299" fill="#dfca58" />
<line x1="705.5789" y1="109.15994" x2="734.88696" y2="43.417187" stroke="#e74c3c" stroke-width="1" />
<polygon points="753.5567,100.6299 705.5789,109.15994 766.3467,168.46365" fill="#f3dc60" />
<line x1="766.3467" y1="168.46365" x2="753.5567" y2="100.6299" stroke="#e74c3c" stroke-width="1" />
<line x1="753.5567" y1="100.6299" x2="705.5789" y2="109.15994" stroke="#e74c3c" stroke-width="1" />
<line x1="705.5789" y1="109.15994" x2="766.3467" y2="168.46365" stroke="#e74c3c" stroke-width="1" />
<polygon points="891.8288,227.06699 841.40454,182.9918 789.73315,242.99184" fill="#fee664" />
<line x1="841.40454" y1="182.9918" x2="891.8288" y2="227.06699" stroke="#e74c3c" stroke-width="1" />
<polygon points="841.40454,182.9918 766.3467,168.46365 789.73315,242.99184" fill="#edd65d" />
<line x1="841.40454" y1="182.9918" x2="789.73315" y2="242.99184" stroke="#e74c3c" stroke-width="1" />
<line x1="841.40454" y1="182.9918" x2="766.3467" y2="168.46365" stroke="#e74c3c" stroke-width="1" />
<polygon points="891.8288,227.06699 896.3284,284.89215 935.54004,271.43478" fill="#e7d15b" />
<line x1="891.8288" y1="227.06699" x2="935.54004" y2="271.43478" stroke="#e74c3c" stroke-width="1" />
<line x1="896.3284" y1="284.89215" x2="935.54004" y2="271.43478" stroke="#e74c3c" stroke-width="1" />
<polygon points="789.73315,242.99184 766.3467,168.46365 691.80774,269.67407" fill="#fee664" />
<line x1="789.73315" y1="242.99184" x2="691.80774" y2="269.67407" stroke="#e74c3c" stroke-width="1" />
<line x1="789.73315" y1="242.99184" x2="766.3467" y2="168.46365" stroke="#e74c3c" stroke-width="1" />
<line x1="766.3467" y1="168.46365" x2="691.80774" y2="269.67407" stroke="#e74c3c" stroke-width="1" />
<polygon points="738.0737,44.7658 734.88696,43.417187 753.5567,100.6299" fill="#dec957" />
<line x1="738.0737" y1="44.7658" x2="753.5567" y2="100.6299" stroke="#e74c3c" stroke-width="1" />
<line x1="734.88696" y1="43.417187" x2="753.5567" y2="100.6299" stroke="#e74c3c" stroke-width="1" />
<polygon points="740.02264,43.326916 736.5888,42.746605 738.0737,44.7658" fill="#fee664" />
<line x1="738.0737" y1="44.7658" x2="740.02264" y2="43.326916" stroke="#e74c3c" stroke-width="1" />
<line x1="740.02264" y1="43.326916" x2="736.5888" y2="42.746605" stroke="#e74c3c" stroke-width="1" />
<polygon points="736.5888,42.746605 734.88696,43.417187 738.0737,44.7658" fill="#fce463" />
<line x1="736.5888" y1="42.746605" x2="738.0737" y2="44.7658" stroke="#e74c3c" stroke-width="1" />
<line x1="736.5888" y1="42.746605" x2="734.88696" y2="43.417187" stroke="#e74c3c" stroke-width="1" />
<line x1="734.88696" y1="43.417187" x2="738.0737" y2="44.7658" stroke="#e74c3c" stroke-width="1" />
<polygon points="896.3284,284.89215 891.8288,227.06699 801.7341,318.70532" fill="#fee664" />
<line x1="896.3284" y1="284.89215" x2="801.7341" y2="318.70532" stroke="#e74c3c" stroke-width="1" />
<line x1="891.8288" y1="227.06699" x2="896.3284" y2="284.89215" stroke="#e74c3c" stroke-width="1" />
<polygon points="891.8288,227.06699 789.73315,242.99184 801.7341,318.70532" fill="#e6d05a" />
<line x1="801.7341" y1="318.70532" x2="891.8288" y2="227.06699" stroke="#e74c3c" stroke-width="1" />
<line x1="789.73315" y1="242.99184" x2="891.8288" y2="227.06699" stroke="#e74c3c" stroke-width="1" />
<line x1="801.7341" y1="318.70532" x2="789.73315" y2="242.99184" stroke="#e74c3c" stroke-width="1" />
</svg>
