<svg width="1000" height="1000">
<polygon points="129.61922,329.64163 47.99971,296.2339 34.53976,316.45422" fill="#fee664" />
<line x1="34.53976" y1="316.45422" x2="47.99971" y2="296.2339" stroke="#e74c3c" stroke-width="1" />
<polygon points="120.89506,353.04105 127.01127,349.64822 34.53976,316.45422" fill="#928439" />
<line x1="120.89506" y1="353.04105" x2="34.53976" y2="316.45422" stroke="#e74c3c" stroke-width="1" />
<polygon points="127.01127,349.64822 129.61922,329.64163 34.53976,316.45422" fill="#fae362" />
<line x1="34.53976" y1="316.45422" x2="127.01127" y2="349.64822" stroke="#e74c3c" stroke-width="1" />
<line x1="129.61922" y1="329.64163" x2="34.53976" y2="316.45422" stroke="#e74c3c" stroke-width="1" />
<polygon points="166.9299,315.8577 47.99971,296.2339 129.61922,329.64163" fill="#fee664" />
<line x1="47.99971" y1="296.2339" x2="166.9299" y2="315.8577" stroke="#e74c3c" stroke-width="1" />
<line x1="47.99971" y1="296.2339" x2="129.61922" y2="329.64163" stroke="#e74c3c" stroke-width="1" />
<polygon points="120.89506,353.04105 262.15314,356.20117 127.01127,349.64822" fill="#675d28" />
<line x1="127.01127" y1="349.64822" x2="120.89506" y2="353.04105" stroke="#e74c3c" stroke-width="1" />
<line x1="262.15314" y1="356.20117" x2="120.89506" y2="353.04105" stroke="#e74c3c" stroke-width="1" />
<polygon points="127.01127,349.64822 241.20363,331.99066 129.61922,329.64163" fill="#fae362" />
<line x1="129.61922" y1="329.64163" x2="127.01127" y2="349.64822" stroke="#e74c3c" stroke-width="1" />
<polygon points="276.8142,304.99695 166.9299,315.8577 129.61922,329.64163" fill="#fee664" />
<line x1="166.9299" y1="315.8577" x2="276.8142" y2="304.99695" stroke="#e74c3c" stroke-width="1" />
<line x1="166.9299" y1="315.8577" x2="129.61922" y2="329.64163" stroke="#e74c3c" stroke-width="1" />
<polygon points="322.66562,611.30164 351.2774,749.431 381.66934,729.91077" fill="#fbe362" />
<line x1="351.2774" y1="749.431" x2="322.66562" y2="611.30164" stroke="#e74c3c" stroke-width="1" />
<polygon points="381.66934,729.91077 406.53534,740.3404 365.11612,598.13257" fill="#908238" />
<line x1="406.53534" y1="740.3404" x2="365.11612" y2="598.13257" stroke="#e74c3c" stroke-width="1" />
<polygon points="351.2774,749.431 374.41553,770.24255 381.66934,729.91077" fill="#fee664" />
<line x1="351.2774" y1="749.431" x2="381.66934" y2="729.91077" stroke="#e74c3c" stroke-width="1" />
<line x1="374.41553" y1="770.24255" x2="351.2774" y2="749.431" stroke="#e74c3c" stroke-width="1" />
<polygon points="381.66934,729.91077 374.41553,770.24255 406.53534,740.3404" fill="#8c7f37" />
<line x1="381.66934" y1="729.91077" x2="406.53534" y2="740.3404" stroke="#e74c3c" stroke-width="1" />
<line x1="374.41553" y1="770.24255" x2="381.66934" y2="729.91077" stroke="#e74c3c" stroke-width="1" />
<line x1="406.53534" y1="740.3404" x2="374.41553" y2="770.24255" stroke="#e74c3c" stroke-width="1" />
<polygon points="322.66562,611.30164 381.66934,729.91077 357.50293,612.6237" fill="#fee664" />
<line x1="322.66562" y1="611.30164" x2="381.66934" y2="729.91077" stroke="#e74c3c" stroke-width="1" />
<polygon points="357.50293,612.6237 381.66934,729.91077 365.11612,598.13257" fill="#877a35" />
<line x1="357.50293" y1="612.6237" x2="381.66934" y2="729.91077" stroke="#e74c3c" stroke-width="1" />
<line x1="381.66934" y1="729.91077" x2="365.11612" y2="598.13257" stroke="#e74c3c" stroke-width="1" />
<polygon points="357.50293,612.6237 365.11612,598.13257 397.37903,475.22925" fill="#524a20" />
<line x1="357.50293" y1="612.6237" x2="397.37903" y2="475.22925" stroke="#e74c3c" stroke-width="1" />
<line x1="357.50293" y1="612.6237" x2="365.11612" y2="598.13257" stroke="#e74c3c" stroke-width="1" />
<line x1="365.11612" y1="598.13257" x2="397.37903" y2="475.22925" stroke="#e74c3c" stroke-width="1" />
<polygon points="312.9469,523.50195 322.66562,611.30164 357.50293,612.6237" fill="#e2cd59" />
<line x1="322.66562" y1="611.30164" x2="312.9469" y2="523.50195" stroke="#e74c3c" stroke-width="1" />
<line x1="322.66562" y1="611.30164" x2="357.50293" y2="612.6237" stroke="#e74c3c" stroke-width="1" />
<polygon points="262.15314,356.20117 241.20363,331.99066 127.01127,349.64822" fill="#97893b" />
<line x1="127.01127" y1="349.64822" x2="262.15314" y2="356.20117" stroke="#e74c3c" stroke-width="1" />
<line x1="241.20363" y1="331.99066" x2="262.15314" y2="356.20117" stroke="#e74c3c" stroke-width="1" />
<line x1="241.20363" y1="331.99066" x2="127.01127" y2="349.64822" stroke="#e74c3c" stroke-width="1" />
<polygon points="241.20363,331.99066 276.8142,304.99695 129.61922,329.64163" fill="#fee664" />
<line x1="241.20363" y1="331.99066" x2="129.61922" y2="329.64163" stroke="#e74c3c" stroke-width="1" />
<line x1="276.8142" y1="304.99695" x2="129.61922" y2="329.64163" stroke="#e74c3c" stroke-width="1" />
<polygon points="362.59305,550.4977 312.9469,523.50195 357.50293,612.6237" fill="#dbc656" />
<line x1="312.9469" y1="523.50195" x2="357.50293" y2="612.6237" stroke="#e74c3c" stroke-width="1" />
<polygon points="288.95972,471.1216 249.21855,406.65192 312.9469,523.50195" fill="#c3b14d" />
<line x1="288.95972" y1="471.1216" x2="249.21855" y2="406.65192" stroke="#e74c3c" stroke-width="1" />
<line x1="312.9469" y1="523.50195" x2="249.21855" y2="406.65192" stroke="#e74c3c" stroke-width="1" />
<polygon points="423.9335,539.5819 362.59305,550.4977 357.50293,612.6237" fill="#b3a246" />
<line x1="423.9335" y1="539.5819" x2="357.50293" y2="612.6237" stroke="#e74c3c" stroke-width="1" />
<line x1="362.59305" y1="550.4977" x2="357.50293" y2="612.6237" stroke="#e74c3c" stroke-width="1" />
<polygon points="288.95972,471.1216 312.9469,523.50195 362.59305,550.4977" fill="#c1af4c" />
<line x1="288.95972" y1="471.1216" x2="362.59305" y2="550.4977" stroke="#e74c3c" stroke-width="1" />
<line x1="312.9469" y1="523.50195" x2="288.95972" y2="471.1216" stroke="#e74c3c" stroke-width="1" />
<line x1="362.59305" y1="550.4977" x2="312.9469" y2="523.50195" stroke="#e74c3c" stroke-width="1" />
<polygon points="260.83887,791.8835 214.35127,625.1591 232.39764,758.20435" fill="#93853a" />
<line x1="260.83887" y1="791.8835" x2="214.35127" y2="625.1591" stroke="#e74c3c" stroke-width="1" />
<polygon points="194.23369,754.29974 203.62135,640.50793 178.68411,630.7962" fill="#fee664" />
<line x1="178.68411" y1="630.7962" x2="194.23369" y2="754.29974" stroke="#e74c3c" stroke-width="1" />
<polygon points="214.35127,625.1591 203.62135,640.50793 232.39764,758.20435" fill="#796e2f" />
<line x1="214.35127" y1="625.1591" x2="232.39764" y2="758.20435" stroke="#e74c3c" stroke-width="1" />
<line x1="203.62135" y1="640.50793" x2="214.35127" y2="625.1591" stroke="#e74c3c" stroke-width="1" />
<polygon points="178.68411,630.7962 203.62135,640.50793 171.87766,460.268" fill="#fce563" />
<line x1="171.87766" y1="460.268" x2="178.68411" y2="630.7962" stroke="#e74c3c" stroke-width="1" />
<line x1="178.68411" y1="630.7962" x2="203.62135" y2="640.50793" stroke="#e74c3c" stroke-width="1" />
<polygon points="226.19664,820.6942 260.83887,791.8835 232.39764,758.20435" fill="#9b8c3d" />
<line x1="260.83887" y1="791.8835" x2="226.19664" y2="820.6942" stroke="#e74c3c" stroke-width="1" />
<line x1="232.39764" y1="758.20435" x2="260.83887" y2="791.8835" stroke="#e74c3c" stroke-width="1" />
<polygon points="194.23369,754.29974 232.39764,758.20435 203.62135,640.50793" fill="#fee664" />
<line x1="203.62135" y1="640.50793" x2="194.23369" y2="754.29974" stroke="#e74c3c" stroke-width="1" />
<line x1="232.39764" y1="758.20435" x2="203.62135" y2="640.50793" stroke="#e74c3c" stroke-width="1" />
<polygon points="226.19664,820.6942 232.39764,758.20435 194.23369,754.29974" fill="#fee664" />
<line x1="194.23369" y1="754.29974" x2="226.19664" y2="820.6942" stroke="#e74c3c" stroke-width="1" />
<line x1="232.39764" y1="758.20435" x2="226.19664" y2="820.6942" stroke="#e74c3c" stroke-width="1" />
<line x1="194.23369" y1="754.29974" x2="232.39764" y2="758.20435" stroke="#e74c3c" stroke-width="1" />
<polygon points="327.24692,522.36554 362.59305,550.4977 423.9335,539.5819" fill="#94863a" />
<line x1="362.59305" y1="550.4977" x2="327.24692" y2="522.36554" stroke="#e74c3c" stroke-width="1" />
<line x1="423.9335" y1="539.5819" x2="362.59305" y2="550.4977" stroke="#e74c3c" stroke-width="1" />
<polygon points="414.25488,516.87885 423.9335,539.5819 438.33063,448.06488" fill="#796e2f" />
<line x1="414.25488" y1="516.87885" x2="438.33063" y2="448.06488" stroke="#e74c3c" stroke-width="1" />
<line x1="438.33063" y1="448.06488" x2="423.9335" y2="539.5819" stroke="#e74c3c" stroke-width="1" />
<polygon points="414.25488,516.87885 327.24692,522.36554 423.9335,539.5819" fill="#9e8f3e" />
<line x1="423.9335" y1="539.5819" x2="414.25488" y2="516.87885" stroke="#e74c3c" stroke-width="1" />
<line x1="327.24692" y1="522.36554" x2="414.25488" y2="516.87885" stroke="#e74c3c" stroke-width="1" />
<line x1="327.24692" y1="522.36554" x2="423.9335" y2="539.5819" stroke="#e74c3c" stroke-width="1" />
<polygon points="203.62135,640.50793 185.72142,501.9027 171.87766,460.268" fill="#e6d05a" />
<line x1="171.87766" y1="460.268" x2="203.62135" y2="640.50793" stroke="#e74c3c" stroke-width="1" />
<polygon points="185.97424,382.48407 171.87766,460.268 194.95029,427.74664" fill="#fce463" />
<line x1="185.97424" y1="382.48407" x2="171.87766" y2="460.268" stroke="#e74c3c" stroke-width="1" />
<polygon points="307.69763,333.24814 276.8142,304.99695 241.20363,331.99066" fill="#fee664" />
<line x1="276.8142" y1="304.99695" x2="241.20363" y2="331.99066" stroke="#e74c3c" stroke-width="1" />
<polygon points="273.22833,565.64966 270.73846,566.21625 203.62135,640.50793" fill="#3f3918" />
<line x1="273.22833" y1="565.64966" x2="203.62135" y2="640.50793" stroke="#e74c3c" stroke-width="1" />
<polygon points="171.87766,460.268 185.72142,501.9027 194.95029,427.74664" fill="#f8e161" />
<line x1="171.87766" y1="460.268" x2="194.95029" y2="427.74664" stroke="#e74c3c" stroke-width="1" />
<line x1="171.87766" y1="460.268" x2="185.72142" y2="501.9027" stroke="#e74c3c" stroke-width="1" />
<polygon points="203.62135,640.50793 270.73846,566.21625 185.72142,501.9027" fill="#edd65d" />
<line x1="185.72142" y1="501.9027" x2="203.62135" y2="640.50793" stroke="#e74c3c" stroke-width="1" />
<line x1="203.62135" y1="640.50793" x2="270.73846" y2="566.21625" stroke="#e74c3c" stroke-width="1" />
<polygon points="273.22833,565.64966 327.24692,522.36554 270.73846,566.21625" fill="#413b19" />
<line x1="273.22833" y1="565.64966" x2="270.73846" y2="566.21625" stroke="#e74c3c" stroke-width="1" />
<line x1="327.24692" y1="522.36554" x2="273.22833" y2="565.64966" stroke="#e74c3c" stroke-width="1" />
<polygon points="241.20363,331.99066 185.97424,382.48407 307.69763,333.24814" fill="#fee664" />
<line x1="307.69763" y1="333.24814" x2="241.20363" y2="331.99066" stroke="#e74c3c" stroke-width="1" />
<line x1="241.20363" y1="331.99066" x2="185.97424" y2="382.48407" stroke="#e74c3c" stroke-width="1" />
<line x1="185.97424" y1="382.48407" x2="307.69763" y2="333.24814" stroke="#e74c3c" stroke-width="1" />
<polygon points="194.95029,427.74664 227.22447,364.81552 185.97424,382.48407" fill="#fee664" />
<line x1="185.97424" y1="382.48407" x2="194.95029" y2="427.74664" stroke="#e74c3c" stroke-width="1" />
<line x1="185.97424" y1="382.48407" x2="227.22447" y2="364.81552" stroke="#e74c3c" stroke-width="1" />
<polygon points="327.24692,522.36554 302.8065,533.6169 270.73846,566.21625" fill="#47411c" />
<line x1="327.24692" y1="522.36554" x2="270.73846" y2="566.21625" stroke="#e74c3c" stroke-width="1" />
<line x1="302.8065" y1="533.6169" x2="327.24692" y2="522.36554" stroke="#e74c3c" stroke-width="1" />
<polygon points="382.0176,292.26367 276.8142,304.99695 307.69763,333.24814" fill="#fee664" />
<line x1="276.8142" y1="304.99695" x2="382.0176" y2="292.26367" stroke="#e74c3c" stroke-width="1" />
<line x1="307.69763" y1="333.24814" x2="276.8142" y2="304.99695" stroke="#e74c3c" stroke-width="1" />
<polygon points="194.95029,427.74664 185.72142,501.9027 263.89377,465.81573" fill="#f4dd60" />
<line x1="185.72142" y1="501.9027" x2="194.95029" y2="427.74664" stroke="#e74c3c" stroke-width="1" />
<polygon points="185.72142,501.9027 270.73846,566.21625 263.89377,465.81573" fill="#f4dd60" />
<line x1="185.72142" y1="501.9027" x2="263.89377" y2="465.81573" stroke="#e74c3c" stroke-width="1" />
<line x1="185.72142" y1="501.9027" x2="270.73846" y2="566.21625" stroke="#e74c3c" stroke-width="1" />
<polygon points="194.95029,427.74664 263.89377,465.81573 227.22447,364.81552" fill="#fee664" />
<line x1="194.95029" y1="427.74664" x2="227.22447" y2="364.81552" stroke="#e74c3c" stroke-width="1" />
<line x1="194.95029" y1="427.74664" x2="263.89377" y2="465.81573" stroke="#e74c3c" stroke-width="1" />
<polygon points="270.73846,566.21625 302.8065,533.6169 263.89377,465.81573" fill="#c6b34d" />
<line x1="270.73846" y1="566.21625" x2="263.89377" y2="465.81573" stroke="#e74c3c" stroke-width="1" />
<line x1="302.8065" y1="533.6169" x2="270.73846" y2="566.21625" stroke="#e74c3c" stroke-width="1" />
<polygon points="263.89377,465.81573 266.336,379.11792 227.22447,364.81552" fill="#efd95e" />
<line x1="263.89377" y1="465.81573" x2="227.22447" y2="364.81552" stroke="#e74c3c" stroke-width="1" />
<polygon points="620.91974,797.7046 586.704,861.0337 607.3674,886.3518" fill="#f2db5f" />
<line x1="607.3674" y1="886.3518" x2="586.704" y2="861.0337" stroke="#e74c3c" stroke-width="1" />
<polygon points="227.22447,364.81552 266.336,379.11792 307.69763,333.24814" fill="#fee664" />
<line x1="227.22447" y1="364.81552" x2="307.69763" y2="333.24814" stroke="#e74c3c" stroke-width="1" />
<line x1="227.22447" y1="364.81552" x2="266.336" y2="379.11792" stroke="#e74c3c" stroke-width="1" />
<polygon points="625.5058,814.2333 624.17847,636.1977 620.91974,797.7046" fill="#71672c" />
<line x1="620.91974" y1="797.7046" x2="625.5058" y2="814.2333" stroke="#e74c3c" stroke-width="1" />
<line x1="624.17847" y1="636.1977" x2="625.5058" y2="814.2333" stroke="#e74c3c" stroke-width="1" />
<line x1="620.91974" y1="797.7046" x2="624.17847" y2="636.1977" stroke="#e74c3c" stroke-width="1" />
<polygon points="607.3674,886.3518 682.01306,871.8375 620.91974,797.7046" fill="#ead45c" />
<line x1="620.91974" y1="797.7046" x2="607.3674" y2="886.3518" stroke="#e74c3c" stroke-width="1" />
<line x1="682.01306" y1="871.8375" x2="607.3674" y2="886.3518" stroke="#e74c3c" stroke-width="1" />
<line x1="682.01306" y1="871.8375" x2="620.91974" y2="797.7046" stroke="#e74c3c" stroke-width="1" />
<polygon points="594.51825,689.0679 586.704,861.0337 620.91974,797.7046" fill="#f0d95e" />
<line x1="586.704" y1="861.0337" x2="620.91974" y2="797.7046" stroke="#e74c3c" stroke-width="1" />
<polygon points="565.26056,643.0453 586.704,861.0337 594.51825,689.0679" fill="#eed85e" />
<line x1="586.704" y1="861.0337" x2="565.26056" y2="643.0453" stroke="#e74c3c" stroke-width="1" />
<line x1="594.51825" y1="689.0679" x2="586.704" y2="861.0337" stroke="#e74c3c" stroke-width="1" />
<polygon points="362.67126,491.41766 263.89377,465.81573 302.8065,533.6169" fill="#ccb950" />
<line x1="263.89377" y1="465.81573" x2="302.8065" y2="533.6169" stroke="#e74c3c" stroke-width="1" />
<polygon points="526.73303,313.31305 382.0176,292.26367 307.69763,333.24814" fill="#fee664" />
<line x1="382.0176" y1="292.26367" x2="526.73303" y2="313.31305" stroke="#e74c3c" stroke-width="1" />
<line x1="382.0176" y1="292.26367" x2="307.69763" y2="333.24814" stroke="#e74c3c" stroke-width="1" />
<polygon points="381.55606,544.1196 362.67126,491.41766 302.8065,533.6169" fill="#b7a548" />
<line x1="302.8065" y1="533.6169" x2="381.55606" y2="544.1196" stroke="#e74c3c" stroke-width="1" />
<line x1="302.8065" y1="533.6169" x2="362.67126" y2="491.41766" stroke="#e74c3c" stroke-width="1" />
<polygon points="594.51825,689.0679 620.91974,797.7046 647.25024,642.56775" fill="#f0d95e" />
<line x1="594.51825" y1="689.0679" x2="620.91974" y2="797.7046" stroke="#e74c3c" stroke-width="1" />
<line x1="647.25024" y1="642.56775" x2="620.91974" y2="797.7046" stroke="#e74c3c" stroke-width="1" />
<polygon points="359.73196,414.19684 266.336,379.11792 263.89377,465.81573" fill="#efd85e" />
<line x1="266.336" y1="379.11792" x2="263.89377" y2="465.81573" stroke="#e74c3c" stroke-width="1" />
<polygon points="413.60718,360.7972 307.69763,333.24814 266.336,379.11792" fill="#fee664" />
<line x1="307.69763" y1="333.24814" x2="266.336" y2="379.11792" stroke="#e74c3c" stroke-width="1" />
<polygon points="565.26056,643.0453 594.51825,689.0679 583.8135,612.2178" fill="#cebb51" />
<line x1="565.26056" y1="643.0453" x2="594.51825" y2="689.0679" stroke="#e74c3c" stroke-width="1" />
<polygon points="499.2135,569.4172 565.26056,643.0453 583.8135,612.2178" fill="#b8a748" />
<line x1="499.2135" y1="569.4172" x2="583.8135" y2="612.2178" stroke="#e74c3c" stroke-width="1" />
<line x1="565.26056" y1="643.0453" x2="499.2135" y2="569.4172" stroke="#e74c3c" stroke-width="1" />
<line x1="583.8135" y1="612.2178" x2="565.26056" y2="643.0453" stroke="#e74c3c" stroke-width="1" />
<polygon points="362.67126,491.41766 359.73196,414.19684 263.89377,465.81573" fill="#eed75d" />
<line x1="263.89377" y1="465.81573" x2="362.67126" y2="491.41766" stroke="#e74c3c" stroke-width="1" />
<line x1="263.89377" y1="465.81573" x2="359.73196" y2="414.19684" stroke="#e74c3c" stroke-width="1" />
<polygon points="477.51083,912.7261 520.9254,955.858 466.15482,884.41565" fill="#c6b34e" />
<line x1="477.51083" y1="912.7261" x2="466.15482" y2="884.41565" stroke="#e74c3c" stroke-width="1" />
<line x1="520.9254" y1="955.858" x2="477.51083" y2="912.7261" stroke="#e74c3c" stroke-width="1" />
<polygon points="583.8135,612.2178 594.51825,689.0679 647.25024,642.56775" fill="#b5a447" />
<line x1="594.51825" y1="689.0679" x2="583.8135" y2="612.2178" stroke="#e74c3c" stroke-width="1" />
<line x1="594.51825" y1="689.0679" x2="647.25024" y2="642.56775" stroke="#e74c3c" stroke-width="1" />
<polygon points="520.9254,955.858 552.49146,913.97644 513.7293,847.5671" fill="#9d8e3d" />
<line x1="552.49146" y1="913.97644" x2="520.9254" y2="955.858" stroke="#e74c3c" stroke-width="1" />
<line x1="552.49146" y1="913.97644" x2="513.7293" y2="847.5671" stroke="#e74c3c" stroke-width="1" />
<polygon points="381.55606,544.1196 425.09238,599.9312 362.67126,491.41766" fill="#c4b14d" />
<line x1="381.55606" y1="544.1196" x2="362.67126" y2="491.41766" stroke="#e74c3c" stroke-width="1" />
<line x1="381.55606" y1="544.1196" x2="425.09238" y2="599.9312" stroke="#e74c3c" stroke-width="1" />
<polygon points="413.60718,360.7972 526.73303,313.31305 307.69763,333.24814" fill="#fee664" />
<line x1="413.60718" y1="360.7972" x2="307.69763" y2="333.24814" stroke="#e74c3c" stroke-width="1" />
<line x1="526.73303" y1="313.31305" x2="307.69763" y2="333.24814" stroke="#e74c3c" stroke-width="1" />
<polygon points="466.15482,884.41565 520.9254,955.858 513.7293,847.5671" fill="#fee664" />
<line x1="520.9254" y1="955.858" x2="466.15482" y2="884.41565" stroke="#e74c3c" stroke-width="1" />
<line x1="513.7293" y1="847.5671" x2="520.9254" y2="955.858" stroke="#e74c3c" stroke-width="1" />
<polygon points="359.73196,414.19684 413.60718,360.7972 266.336,379.11792" fill="#fee664" />
<line x1="266.336" y1="379.11792" x2="359.73196" y2="414.19684" stroke="#e74c3c" stroke-width="1" />
<line x1="413.60718" y1="360.7972" x2="266.336" y2="379.11792" stroke="#e74c3c" stroke-width="1" />
<polygon points="471.08426,676.84 466.15482,884.41565 513.7293,847.5671" fill="#e3cd59" />
<line x1="466.15482" y1="884.41565" x2="471.08426" y2="676.84" stroke="#e74c3c" stroke-width="1" />
<line x1="513.7293" y1="847.5671" x2="466.15482" y2="884.41565" stroke="#e74c3c" stroke-width="1" />
<polygon points="737.37585,519.0048 668.43555,544.4149 647.25024,642.56775" fill="#7e7231" />
<line x1="737.37585" y1="519.0048" x2="647.25024" y2="642.56775" stroke="#e74c3c" stroke-width="1" />
<polygon points="583.8135,612.2178 647.25024,642.56775 668.43555,544.4149" fill="#aa9a43" />
<line x1="668.43555" y1="544.4149" x2="583.8135" y2="612.2178" stroke="#e74c3c" stroke-width="1" />
<line x1="647.25024" y1="642.56775" x2="583.8135" y2="612.2178" stroke="#e74c3c" stroke-width="1" />
<line x1="668.43555" y1="544.4149" x2="647.25024" y2="642.56775" stroke="#e74c3c" stroke-width="1" />
<polygon points="522.9902,712.4415 583.8135,612.2178 552.92035,659.9654" fill="#554d21" />
<line x1="522.9902" y1="712.4415" x2="552.92035" y2="659.9654" stroke="#e74c3c" stroke-width="1" />
<line x1="583.8135" y1="612.2178" x2="522.9902" y2="712.4415" stroke="#e74c3c" stroke-width="1" />
<line x1="583.8135" y1="612.2178" x2="552.92035" y2="659.9654" stroke="#e74c3c" stroke-width="1" />
<polygon points="471.08426,676.84 513.7293,847.5671 552.92035,659.9654" fill="#f3dc5f" />
<line x1="471.08426" y1="676.84" x2="513.7293" y2="847.5671" stroke="#e74c3c" stroke-width="1" />
<line x1="513.7293" y1="847.5671" x2="552.92035" y2="659.9654" stroke="#e74c3c" stroke-width="1" />
<polygon points="362.67126,491.41766 425.09238,599.9312 468.8956,617.76556" fill="#d3bf53" />
<line x1="362.67126" y1="491.41766" x2="425.09238" y2="599.9312" stroke="#e74c3c" stroke-width="1" />
<polygon points="359.73196,414.19684 362.67126,491.41766 457.67096,451.87253" fill="#eed75d" />
<line x1="362.67126" y1="491.41766" x2="359.73196" y2="414.19684" stroke="#e74c3c" stroke-width="1" />
<polygon points="737.37585,519.0048 749.6122,414.1516 668.43555,544.4149" fill="#94863a" />
<line x1="737.37585" y1="519.0048" x2="668.43555" y2="544.4149" stroke="#e74c3c" stroke-width="1" />
<line x1="749.6122" y1="414.1516" x2="737.37585" y2="519.0048" stroke="#e74c3c" stroke-width="1" />
<polygon points="471.08426,676.84 468.8956,617.76556 425.09238,599.9312" fill="#dac555" />
<line x1="425.09238" y1="599.9312" x2="471.08426" y2="676.84" stroke="#e74c3c" stroke-width="1" />
<line x1="425.09238" y1="599.9312" x2="468.8956" y2="617.76556" stroke="#e74c3c" stroke-width="1" />
<polygon points="514.4758,338.97736 526.73303,313.31305 413.60718,360.7972" fill="#f9e162" />
<line x1="413.60718" y1="360.7972" x2="526.73303" y2="313.31305" stroke="#e74c3c" stroke-width="1" />
<polygon points="413.60718,360.7972 359.73196,414.19684 457.67096,451.87253" fill="#fee664" />
<line x1="359.73196" y1="414.19684" x2="413.60718" y2="360.7972" stroke="#e74c3c" stroke-width="1" />
<line x1="457.67096" y1="451.87253" x2="359.73196" y2="414.19684" stroke="#e74c3c" stroke-width="1" />
<polygon points="468.8956,617.76556 471.08426,676.84 552.92035,659.9654" fill="#bba949" />
<line x1="471.08426" y1="676.84" x2="468.8956" y2="617.76556" stroke="#e74c3c" stroke-width="1" />
<line x1="471.08426" y1="676.84" x2="552.92035" y2="659.9654" stroke="#e74c3c" stroke-width="1" />
<polygon points="457.67096,451.87253 362.67126,491.41766 468.8956,617.76556" fill="#f8e061" />
<line x1="362.67126" y1="491.41766" x2="457.67096" y2="451.87253" stroke="#e74c3c" stroke-width="1" />
<line x1="362.67126" y1="491.41766" x2="468.8956" y2="617.76556" stroke="#e74c3c" stroke-width="1" />
<polygon points="600.7895,280.56454 526.73303,313.31305 514.4758,338.97736" fill="#fbe362" />
<line x1="526.73303" y1="313.31305" x2="600.7895" y2="280.56454" stroke="#e74c3c" stroke-width="1" />
<line x1="514.4758" y1="338.97736" x2="526.73303" y2="313.31305" stroke="#e74c3c" stroke-width="1" />
<polygon points="514.4758,338.97736 413.60718,360.7972 457.67096,451.87253" fill="#fee664" />
<line x1="514.4758" y1="338.97736" x2="413.60718" y2="360.7972" stroke="#e74c3c" stroke-width="1" />
<line x1="457.67096" y1="451.87253" x2="413.60718" y2="360.7972" stroke="#e74c3c" stroke-width="1" />
<polygon points="749.6122,414.1516 805.70465,318.64563 754.1486,368.67072" fill="#675d28" />
<line x1="805.70465" y1="318.64563" x2="749.6122" y2="414.1516" stroke="#e74c3c" stroke-width="1" />
<line x1="805.70465" y1="318.64563" x2="754.1486" y2="368.67072" stroke="#e74c3c" stroke-width="1" />
<polygon points="749.6122,414.1516 754.1486,368.67072 668.43555,544.4149" fill="#675d28" />
<line x1="749.6122" y1="414.1516" x2="668.43555" y2="544.4149" stroke="#e74c3c" stroke-width="1" />
<line x1="749.6122" y1="414.1516" x2="754.1486" y2="368.67072" stroke="#e74c3c" stroke-width="1" />
<polygon points="668.43555,544.4149 585.0096,549.5407 552.92035,659.9654" fill="#897c36" />
<line x1="552.92035" y1="659.9654" x2="668.43555" y2="544.4149" stroke="#e74c3c" stroke-width="1" />
<polygon points="585.0096,549.5407 468.8956,617.76556 552.92035,659.9654" fill="#bba949" />
<line x1="552.92035" y1="659.9654" x2="585.0096" y2="549.5407" stroke="#e74c3c" stroke-width="1" />
<line x1="552.92035" y1="659.9654" x2="468.8956" y2="617.76556" stroke="#e74c3c" stroke-width="1" />
<polygon points="888.36444,231.15317 877.9771,79.581436 820.2058,144.02205" fill="#b7a548" />
<line x1="888.36444" y1="231.15317" x2="820.2058" y2="144.02205" stroke="#e74c3c" stroke-width="1" />
<line x1="877.9771" y1="79.581436" x2="888.36444" y2="231.15317" stroke="#e74c3c" stroke-width="1" />
<polygon points="555.1554,408.10562 600.7895,280.56454 514.4758,338.97736" fill="#fee664" />
<line x1="600.7895" y1="280.56454" x2="514.4758" y2="338.97736" stroke="#e74c3c" stroke-width="1" />
<polygon points="457.67096,451.87253 468.8956,617.76556 585.0096,549.5407" fill="#fde563" />
<line x1="468.8956" y1="617.76556" x2="457.67096" y2="451.87253" stroke="#e74c3c" stroke-width="1" />
<line x1="468.8956" y1="617.76556" x2="585.0096" y2="549.5407" stroke="#e74c3c" stroke-width="1" />
<polygon points="820.2058,144.02205 877.9771,79.581436 758.8787,136.9052" fill="#fee664" />
<line x1="758.8787" y1="136.9052" x2="820.2058" y2="144.02205" stroke="#e74c3c" stroke-width="1" />
<line x1="820.2058" y1="144.02205" x2="877.9771" y2="79.581436" stroke="#e74c3c" stroke-width="1" />
<line x1="758.8787" y1="136.9052" x2="877.9771" y2="79.581436" stroke="#e74c3c" stroke-width="1" />
<polygon points="457.67096,451.87253 555.1554,408.10562 514.4758,338.97736" fill="#fee664" />
<line x1="457.67096" y1="451.87253" x2="514.4758" y2="338.97736" stroke="#e74c3c" stroke-width="1" />
<line x1="555.1554" y1="408.10562" x2="514.4758" y2="338.97736" stroke="#e74c3c" stroke-width="1" />
<polygon points="754.1486,368.67072 633.2396,424.25638 668.43555,544.4149" fill="#ac9c43" />
<line x1="754.1486" y1="368.67072" x2="668.43555" y2="544.4149" stroke="#e74c3c" stroke-width="1" />
<polygon points="633.2396,424.25638 585.0096,549.5407 668.43555,544.4149" fill="#9d8f3e" />
<line x1="633.2396" y1="424.25638" x2="668.43555" y2="544.4149" stroke="#e74c3c" stroke-width="1" />
<line x1="668.43555" y1="544.4149" x2="585.0096" y2="549.5407" stroke="#e74c3c" stroke-width="1" />
<polygon points="663.9313,236.28325 600.7895,280.56454 555.1554,408.10562" fill="#fee664" />
<line x1="600.7895" y1="280.56454" x2="663.9313" y2="236.28325" stroke="#e74c3c" stroke-width="1" />
<line x1="555.1554" y1="408.10562" x2="600.7895" y2="280.56454" stroke="#e74c3c" stroke-width="1" />
<polygon points="457.67096,451.87253 585.0096,549.5407 555.1554,408.10562" fill="#fde563" />
<line x1="555.1554" y1="408.10562" x2="457.67096" y2="451.87253" stroke="#e74c3c" stroke-width="1" />
<line x1="457.67096" y1="451.87253" x2="585.0096" y2="549.5407" stroke="#e74c3c" stroke-width="1" />
<polygon points="633.2396,424.25638 663.9313,236.28325 555.1554,408.10562" fill="#fee664" />
<line x1="663.9313" y1="236.28325" x2="555.1554" y2="408.10562" stroke="#e74c3c" stroke-width="1" />
<polygon points="633.2396,424.25638 555.1554,408.10562 585.0096,549.5407" fill="#fae362" />
<line x1="585.0096" y1="549.5407" x2="633.2396" y2="424.25638" stroke="#e74c3c" stroke-width="1" />
<line x1="555.1554" y1="408.10562" x2="633.2396" y2="424.25638" stroke="#e74c3c" stroke-width="1" />
<line x1="585.0096" y1="549.5407" x2="555.1554" y2="408.10562" stroke="#e74c3c" stroke-width="1" />
<polygon points="698.16064,319.56232 633.2396,424.25638 754.1486,368.67072" fill="#9f903e" />
<line x1="754.1486" y1="368.67072" x2="633.2396" y2="424.25638" stroke="#e74c3c" stroke-width="1" />
<polygon points="697.67633,188.66676 663.9313,236.28325 633.2396,424.25638" fill="#ebd45c" />
<line x1="697.67633" y1="188.66676" x2="663.9313" y2="236.28325" stroke="#e74c3c" stroke-width="1" />
<line x1="633.2396" y1="424.25638" x2="663.9313" y2="236.28325" stroke="#e74c3c" stroke-width="1" />
<polygon points="801.7341,318.70532 698.16064,319.56232 754.1486,368.67072" fill="#8a7d36" />
<line x1="754.1486" y1="368.67072" x2="698.16064" y2="319.56232" stroke="#e74c3c" stroke-width="1" />
<polygon points="698.16064,319.56232 697.67633,188.66676 633.2396,424.25638" fill="#f9e162" />
<line x1="633.2396" y1="424.25638" x2="698.16064" y2="319.56232" stroke="#e74c3c" stroke-width="1" />
<line x1="697.67633" y1="188.66676" x2="633.2396" y2="424.25638" stroke="#e74c3c" stroke-width="1" />
<polygon points="909.76984,322.7185 801.7341,318.70532 754.1486,368.67072" fill="#7a6f30" />
<line x1="909.76984" y1="322.7185" x2="754.1486" y2="368.67072" stroke="#e74c3c" stroke-width="1" />
<line x1="801.7341" y1="318.70532" x2="754.1486" y2="368.67072" stroke="#e74c3c" stroke-width="1" />
<polygon points="941.2694,224.57257 820.2058,144.02205 784.22125,224.51791" fill="#fee664" />
<line x1="820.2058" y1="144.02205" x2="941.2694" y2="224.57257" stroke="#e74c3c" stroke-width="1" />
<polygon points="728.3592,40.855526 784.22125,224.51791 820.2058,144.02205" fill="#c5b34d" />
<line x1="728.3592" y1="40.855526" x2="820.2058" y2="144.02205" stroke="#e74c3c" stroke-width="1" />
<line x1="820.2058" y1="144.02205" x2="784.22125" y2="224.51791" stroke="#e74c3c" stroke-width="1" />
<polygon points="784.22125,224.51791 697.67633,188.66676 698.16064,319.56232" fill="#f9e162" />
<line x1="698.16064" y1="319.56232" x2="697.67633" y2="188.66676" stroke="#e74c3c" stroke-width="1" />
<polygon points="909.76984,322.7185 941.2694,224.57257 801.7341,318.70532" fill="#e4cf5a" />
<line x1="909.76984" y1="322.7185" x2="801.7341" y2="318.70532" stroke="#e74c3c" stroke-width="1" />
<line x1="941.2694" y1="224.57257" x2="909.76984" y2="322.7185" stroke="#e74c3c" stroke-width="1" />
<polygon points="728.3592,40.855526 697.67633,188.66676 784.22125,224.51791" fill="#f0da5e" />
<line x1="784.22125" y1="224.51791" x2="728.3592" y2="40.855526" stroke="#e74c3c" stroke-width="1" />
<line x1="728.3592" y1="40.855526" x2="697.67633" y2="188.66676" stroke="#e74c3c" stroke-width="1" />
<line x1="784.22125" y1="224.51791" x2="697.67633" y2="188.66676" stroke="#e74c3c" stroke-width="1" />
<polygon points="801.7341,318.70532 784.22125,224.51791 698.16064,319.56232" fill="#eed85d" />
<line x1="698.16064" y1="319.56232" x2="801.7341" y2="318.70532" stroke="#e74c3c" stroke-width="1" />
<line x1="784.22125" y1="224.51791" x2="698.16064" y2="319.56232" stroke="#e74c3c" stroke-width="1" />
<polygon points="941.2694,224.57257 784.22125,224.51791 801.7341,318.70532" fill="#e8d25b" />
<line x1="801.7341" y1="318.70532" x2="941.2694" y2="224.57257" stroke="#e74c3c" stroke-width="1" />
<line x1="784.22125" y1="224.51791" x2="941.2694" y2="224.57257" stroke="#e74c3c" stroke-width="1" />
<line x1="801.7341" y1="318.70532" x2="784.22125" y2="224.51791" stroke="#e74c3c" stroke-width="1" />
</svg>
